<?xml version="1.0" standalone="no"?>
<svg version="1.1" id="Layer_1" xmlns="http://www.w3.org/2000/svg" xmlns:xlink="http://www.w3.org/1999/xlink" x="0px" y="0px" width="595.28px" height="595.28px" viewBox="0 0 595.28 595.28" enable-background="new 0 0 595.28 595.28" xml:space="preserve">
<path id="color_x5F_5" fill="#FFD2BB" d="M292.317,405.246c1.013,9.009,4.933,56.256,5.081,74.75
	c-0.002,0.002-8.92,9.646-9.901,6.203c-0.007-0.024-0.015-0.045-0.022-0.07c-0.806-3.116-0.9-3.48-0.911-3.522
	c-3.917-16.939-10.92-66.123-11.96-75.368c-0.531-4.721-0.637-9.098-0.39-12.62c0.995,1.38,2.015,2.151,3.057,2.151h13.643
	C291.488,399.334,291.975,402.197,292.317,405.246z M316.966,405.12c-1.71-3.869-3.575-7.34-5.366-10.114
	c-0.904,1.138-1.828,1.764-2.77,1.764h-12.996c0.471,3.883,2.162,9.528,4.828,15.558c3.382,7.651,23.182,47.657,34.225,67.486
	c0,0,5.352,8.433,9.418,7.511c4.188-0.949,3.988-5.07,3.17-8.194C340.566,459.723,320.588,413.314,316.966,405.12z M295.342,192.759
	c1.376,0,2.638-0.498,3.618-1.321c1.231-1.035,2.018-2.584,2.018-4.315c0-1.64-0.708-3.114-1.83-4.145
	c-0.062,0.072-0.127,0.149-0.188,0.219c-4.585,5.286-6.371,5.399-8.197,7.199C291.787,191.824,293.456,192.759,295.342,192.759z
	 M301.022,180.635c2.704-3.807,4.76-9.237,6.241-14.311c2.688,0.148,7.113,0.545,7.626,0.608l0.115,0.015
	c0.743,2.549,1.011,5.353,0.66,8.255c-0.025,0.209-0.048,0.417-0.067,0.624c0.198,0.295,0.377,0.611,0.522,0.955
	c0.991,2.357,2.903,4.215,0.913,5.052c-0.444,0.187-1.055,0.302-1.733,0.349c-0.086,7.055,0.063,12.632-6.275,11.865
	c-1.86-0.225-4.125-0.986-6.504-2.13c0.919-1.373,1.457-3.021,1.457-4.792C303.978,184.537,302.829,182.219,301.022,180.635z
	 M311.154,177.062c0.546,0.06,1.049-0.611,1.138-1.494c0.088-0.884-0.288-1.648-0.828-1.706c-0.546-0.06-1.052,0.61-1.137,1.492
	C310.242,176.239,310.616,177.003,311.154,177.062z M235.115,257.326c7.623-5.691,17.366-13.507,24.778-19.58
	c-0.075-0.65-0.149-1.293-0.224-1.916c-0.06-0.49-0.11-0.97-0.16-1.43c-0.04-0.39-0.08-0.77-0.12-1.14
	c-0.04-0.41-0.08-0.81-0.12-1.2c-0.05-0.56-0.11-1.1-0.15-1.62c-0.1-1.03-0.17-1.96-0.23-2.8c-0.02-0.22-0.03-0.43-0.04-0.63
	c-0.03-0.42-0.05-0.81-0.07-1.16c-0.01-0.24-0.02-0.47-0.02-0.68c-0.01-0.32-0.02-0.61-0.02-0.86c0-4.756,1.81-9.082,4.758-12.364
	c-1.638,1.046-3.357,2.324-5.062,3.807c-6.132,5.334-39.951,35.187-40.781,42.306c-0.013,0.114-0.026,0.228-0.022,0.33
	c0.001,0.035-0.011,0.079-0.007,0.112l0.025,0.029c0.225,1.913,3.258,5.101,7.58,7.775c2.605,1.612,12.422,7.206,21.559,12.09
	l5.848-6.76c0.45-0.52,0.994-0.903,1.581-1.17C247.421,265.599,239.635,260.307,235.115,257.326z M260.692,275.212
	c-0.107,0.876-0.466,1.732-1.087,2.451l-4.41,5.098c0.297,0.148,0.591,0.295,0.878,0.437c-4.756,7.179-2.98,20.698-2.98,20.698
	l10.959-17.469c0.091-0.013,0.154-0.044,0.186-0.095l3.122-5.05C267.674,280.772,264.865,278.372,260.692,275.212z M405.333,215.982
	c-4.229,0.401-8.843,0.909-13.151,1.419c-7.154,0.848-13.441,1.699-15.589,2.06c-1.471,0.248-2.855,0.58-4.103,0.966
	c-14.295-4.742-44.463-12.25-50.585-13.52c-3.71-0.77-7.182-1.028-9.92-0.839c-1.027-0.177-2.077-0.289-3.155-0.289h-7.129
	l0.307-13.172c-0.821,0.996-1.864,1.798-3.048,2.347c-1.102,0.512-2.325,0.805-3.618,0.805c-2.558,0-4.852-1.124-6.434-2.896
	c-2.749,4.604-3.361,11.661-3.442,12.758c-0.006,0.092-0.011,0.156-0.011,0.158v0.003l-0.002-0.003h-7.443
	c2.576,12.993,10.327,21.952,20.95,27.332c6.163,3.121,13.289,5.042,20.94,5.838c-0.471-2.64-1.131-4.88-2-6.55
	c-1.06-2.027,4.895-4.832,7.859-6.671c11.387,1.967,31.457,5.124,43.241,6.255c1.999,0.764,5.663,0.894,9.736,0.208
	c2.197-0.37,8.655-1.676,15.894-3.269c3.566-0.785,7.318-1.639,10.851-2.486c-0.088-0.355-0.148-0.722-0.148-1.104V215.982z
	 M413.548,195.548l2.443,19.669c-0.454,0.014-0.934,0.032-1.443,0.057v8.842c2.675-0.748,4.763-1.418,5.858-1.938
	c1.468-0.254,2.994-1.614,3.791-5.639C426.024,207.313,413.548,195.548,413.548,195.548z" data-darkreader-inline-fill="" style="--darkreader-inline-fill:#5c1f00;"></path>
<path id="color_x5F_3" fill="#E84393" d="M387.635,337.44c0,1.104-0.896,2-2,2s-2-0.896-2-2V320.05c0-1.104,0.896-2,2-2s2,0.896,2,2
	V337.44z M385.635,381.085c-1.104,0-2,0.896-2,2v17.391c0,1.104,0.896,2,2,2s2-0.896,2-2v-17.391
	C387.635,381.98,386.739,381.085,385.635,381.085z M364.812,360.263c0-1.104-0.896-2-2-2h-17.39c-1.104,0-2,0.896-2,2s0.896,2,2,2
	h17.39C363.916,362.263,364.812,361.367,364.812,360.263z M425.848,358.263h-17.389c-1.104,0-2,0.896-2,2s0.896,2,2,2h17.389
	c1.104,0,2-0.896,2-2S426.952,358.263,425.848,358.263z M370.91,342.71l-12.297-12.296c-0.781-0.781-2.047-0.781-2.828,0
	s-0.781,2.047,0,2.828l12.297,12.296c0.391,0.391,0.902,0.586,1.414,0.586s1.023-0.195,1.414-0.586
	C371.691,344.757,371.691,343.491,370.91,342.71z M400.359,377.814l12.297,12.297c0.391,0.391,0.902,0.586,1.414,0.586
	s1.023-0.195,1.414-0.586c0.781-0.781,0.781-2.047,0-2.828l-12.297-12.297c-0.781-0.781-2.047-0.781-2.828,0
	S399.578,377.033,400.359,377.814z M357.199,390.697c0.512,0,1.023-0.195,1.414-0.586l12.297-12.296
	c0.781-0.781,0.781-2.047,0-2.828s-2.047-0.781-2.828,0l-12.297,12.296c-0.781,0.781-0.781,2.047,0,2.828
	C356.176,390.502,356.688,390.697,357.199,390.697z M412.656,330.413l-12.297,12.297c-0.781,0.781-0.781,2.047,0,2.828
	c0.391,0.391,0.902,0.586,1.414,0.586s1.023-0.195,1.414-0.586l12.297-12.297c0.781-0.781,0.781-2.047,0-2.828
	S413.438,329.632,412.656,330.413z M206.125,145.446c1.104,0,2-0.896,2-2v-17.391c0-1.104-0.896-2-2-2s-2,0.896-2,2v17.391
	C204.125,144.55,205.021,145.446,206.125,145.446z M206.125,208.481c1.104,0,2-0.896,2-2V189.09c0-1.104-0.896-2-2-2s-2,0.896-2,2
	v17.391C204.125,207.585,205.021,208.481,206.125,208.481z M165.912,168.268h17.39c1.104,0,2-0.896,2-2s-0.896-2-2-2h-17.39
	c-1.104,0-2,0.896-2,2S164.808,168.268,165.912,168.268z M226.949,166.268c0,1.104,0.896,2,2,2h17.389c1.104,0,2-0.896,2-2
	s-0.896-2-2-2h-17.389C227.845,164.268,226.949,165.164,226.949,166.268z M188.572,151.543c0.391,0.391,0.902,0.586,1.414,0.586
	s1.024-0.195,1.414-0.586c0.781-0.781,0.781-2.047,0-2.828l-12.297-12.296c-0.781-0.781-2.048-0.781-2.828,0
	c-0.781,0.781-0.781,2.047,0,2.828L188.572,151.543z M233.146,196.117c0.39,0.391,0.902,0.586,1.414,0.586s1.024-0.195,1.414-0.586
	c0.781-0.781,0.781-2.047,0-2.828l-12.297-12.297c-0.78-0.781-2.048-0.781-2.828,0c-0.781,0.781-0.781,2.047,0,2.828
	L233.146,196.117z M179.104,196.117l12.297-12.296c0.781-0.781,0.781-2.047,0-2.828c-0.78-0.781-2.047-0.781-2.828,0l-12.297,12.296
	c-0.781,0.781-0.781,2.047,0,2.828c0.39,0.391,0.902,0.586,1.414,0.586S178.713,196.507,179.104,196.117z M222.264,152.129
	c0.512,0,1.024-0.195,1.414-0.586l12.297-12.297c0.781-0.781,0.781-2.047,0-2.828c-0.78-0.781-2.048-0.781-2.828,0l-12.297,12.297
	c-0.781,0.781-0.781,2.047,0,2.828C221.24,151.934,221.752,152.129,222.264,152.129z" data-darkreader-inline-fill="" style="--darkreader-inline-fill:#9e1357;"></path>
<path id="color_x5F_2" fill="#FBC02D" d="M378.737,232.191c2.197-0.37,8.655-1.676,15.894-3.269c1.85,1.523,4.758,2.789,9.329,2.789
	c11.5,0,38.5-1.5,41,23.5s-15,36-50,36c-21.314,0-52.272-17.06-73.223-30.401c1.332-7.56,2.475-15.121,3.373-21.479
	c-1.761-0.07-3.5-0.19-5.21-0.38c-0.471-2.64-1.131-4.88-2-6.55c-1.06-2.027,4.895-4.832,7.859-6.671
	c11.387,1.967,31.457,5.124,43.241,6.255C371,232.748,374.664,232.877,378.737,232.191z M312.292,175.567
	c0.088-0.884-0.288-1.648-0.828-1.706c-0.546-0.06-1.052,0.61-1.137,1.492c-0.085,0.886,0.289,1.649,0.827,1.708
	C311.7,177.121,312.203,176.45,312.292,175.567z M285.455,205.783v-0.003c0-0.002,0.005-0.066,0.011-0.158
	c0.081-1.097,0.693-8.155,3.442-12.758c0.005-0.008,0.009-0.018,0.015-0.027c0.678-1.13,1.261-1.869,1.84-2.44
	c1.826-1.8,3.612-1.913,8.197-7.199c0.061-0.07,0.126-0.147,0.188-0.219c0.34-0.396,0.691-0.813,1.063-1.267
	c0.277-0.34,0.547-0.703,0.813-1.076c2.704-3.807,4.76-9.237,6.241-14.311c2.688,0.148,7.113,0.545,7.626,0.608l0.115,0.015
	c0.743,2.549,1.011,5.353,0.66,8.255c-0.025,0.209-0.048,0.417-0.067,0.624c0.198,0.295,0.377,0.611,0.522,0.955
	c0.991,2.357,2.903,4.215,0.913,5.052c-0.444,0.187-1.055,0.302-1.733,0.349c-0.086,7.055,0.063,12.632-6.275,11.865
	c-1.86-0.225-4.125-0.986-6.504-2.13c-0.16,0.239-0.33,0.47-0.513,0.692l-0.307,13.172h7.129c1.078,0,2.128,0.111,3.155,0.289
	c2.738-0.189,6.21,0.069,9.92,0.839c6.122,1.27,36.29,8.778,50.585,13.52c1.247-0.386,2.632-0.718,4.103-0.966
	c2.147-0.361,8.435-1.212,15.589-2.06c-0.136-2.841-0.363-6.605-0.722-11.6c-2-27.91-47-22.09-55-22.59s-20.34-6.431-16-13.5
	s4.209-10.77,0-13.631c-2.865-1.947-6.615-2.855-10.18-3.231c0.023-0.151,0.035-0.23,0.035-0.23s-27.105-3.908-33.799,19.18
	c-3.878,13.377,8.897,33.918,8.937,33.981L285.455,205.783z M313.77,293.35h4.461c-1.15-0.78-2.37-1.41-3.66-1.89
	c-0.69-0.26-1.431-6.01-0.9-10.79h-0.107H273c0.99,3.96-0.68,10.48-1.75,10.9c-1.18,0.46-2.3,1.05-3.36,1.78h4.182H313.77z
	 M492.96,511.317h-388c-0.829,0-1.5,0.672-1.5,1.5s0.671,1.5,1.5,1.5h388c0.828,0,1.5-0.672,1.5-1.5S493.788,511.317,492.96,511.317
	z" data-darkreader-inline-fill="" style="--darkreader-inline-fill:#b07f03;"></path>
<path id="color_x5F_1" fill="#0984E3" d="M216.851,475.313c0,0-10.471,18.039-29.565,26.779
	c-19.098,8.738-39.588,4.872-39.588,4.872s10.466-18.036,29.564-26.78C196.353,471.445,216.851,475.313,216.851,475.313z
	 M149.143,475.764c-1.074-16.22-11.25-28.739-11.25-28.739s-8.427,13.762-7.349,29.978c1.074,16.217,11.254,28.739,11.254,28.739
	S150.222,491.978,149.143,475.764z M160.617,476.89c0,0,6.71-10.964,5.853-23.883c-0.862-12.914-8.96-22.893-8.96-22.893
	s-6.719,10.966-5.853,23.883C152.511,466.906,160.617,476.89,160.617,476.89z M178.874,453.4c0,0,5.311-8.672,4.632-18.894
	c-0.68-10.221-7.094-18.117-7.094-18.117s-5.312,8.677-4.631,18.892C172.459,445.506,178.874,453.4,178.874,453.4z M201.223,438.421
	c6.149-8.195,6.429-18.361,6.429-18.361s-9.685,3.115-15.829,11.309c-6.142,8.197-6.424,18.364-6.424,18.364
	S195.081,446.616,201.223,438.421z M187.831,473.429C199.626,468.092,206.125,457,206.125,457s-12.625-2.437-24.412,2.904
	c-11.802,5.339-18.297,16.43-18.297,16.43S176.036,478.771,187.831,473.429z M448.807,480.185
	c-19.098,8.744-29.564,26.78-29.564,26.78s20.49,3.866,39.588-4.872c19.096-8.74,29.566-26.779,29.566-26.779
	S467.898,471.445,448.807,480.185z M420.688,475.764c-1.074-16.22-11.25-28.739-11.25-28.739s-8.426,13.762-7.348,29.978
	c1.074,16.217,11.254,28.739,11.254,28.739S421.768,491.978,420.688,475.764z M432.162,476.89c0,0,6.711-10.964,5.854-23.883
	c-0.863-12.914-8.961-22.893-8.961-22.893s-6.719,10.966-5.852,23.883C424.057,466.906,432.162,476.89,432.162,476.89z
	 M450.42,453.4c0,0,5.311-8.672,4.631-18.894c-0.68-10.221-7.094-18.117-7.094-18.117s-5.311,8.677-4.631,18.892
	C444.004,445.506,450.42,453.4,450.42,453.4z M472.768,438.421c6.15-8.195,6.43-18.361,6.43-18.361s-9.686,3.115-15.83,11.309
	c-6.141,8.197-6.424,18.364-6.424,18.364S466.627,446.616,472.768,438.421z M459.377,473.429C471.172,468.092,477.67,457,477.67,457
	s-12.625-2.437-24.412,2.904c-11.801,5.339-18.297,16.43-18.297,16.43S447.582,478.771,459.377,473.429z M318.23,293.35h-4.461
	h-41.698h-4.182c-1.36,0.9-2.61,2.01-3.72,3.28c-3.35,3.83-5.43,9.13-5.43,14.99c0,10.519,6.697,70.828,15.473,82.998
	c0.995,1.38,2.015,2.151,3.057,2.151h13.643h4.921h12.996c0.941,0,1.865-0.626,2.77-1.764c8.917-11.23,15.761-72.753,15.761-83.386
	C327.36,303.83,323.69,297.03,318.23,293.35z M258.78,225.85c0.02,0.35,0.04,0.74,0.07,1.16c0.01,0.2,0.02,0.41,0.04,0.63
	c0.06,0.84,0.13,1.77,0.23,2.8c0.04,0.52,0.1,1.06,0.15,1.62c0.04,0.39,0.08,0.79,0.12,1.2c0.04,0.37,0.08,0.75,0.12,1.14
	c0.05,0.46,0.1,0.94,0.16,1.43c0.074,0.623,0.149,1.266,0.224,1.916c0.005,0.049,0.011,0.095,0.017,0.144
	c0.06,0.47,0.11,0.95,0.17,1.43c0.03,0.24,0.06,0.48,0.09,0.73c0.06,0.49,0.13,0.99,0.19,1.49c0.13,1,0.27,2.03,0.41,3.09
	c0.2,1.48,0.42,3,0.66,4.55c0.09,0.65,0.19,1.31,0.29,1.97c0.14,0.92,0.29,1.86,0.44,2.8c0.12,0.76,0.25,1.52,0.37,2.29
	c0.14,0.86,0.29,1.72,0.44,2.58c0.55,3.16,1.15,6.34,1.78,9.45c0.68,3.32,7.49,9.35,8.25,12.4h40.563h0.107
	c0.07-0.75,0.18-1.47,0.33-2.14c0.37-1.7,3.82-5.96,5.53-8.85c0.5-0.83,0.85-1.54,0.95-2.05c0.437-2.251,0.854-4.536,1.257-6.82
	c1.332-7.56,2.475-15.121,3.373-21.479c-1.761-0.07-3.5-0.19-5.21-0.38c-7.651-0.797-14.777-2.717-20.94-5.838
	c-10.624-5.38-18.374-14.339-20.95-27.332h-0.74c-5.474,0-10.379,2.39-13.772,6.167c-2.948,3.282-4.758,7.607-4.758,12.364
	c0,0.25,0.01,0.54,0.02,0.86C258.76,225.38,258.77,225.61,258.78,225.85z M346.131,475.451c0,0,0.806,1.624,1.344,3.679
	c0.818,3.124,1.019,7.245-3.17,8.194c-4.066,0.922-9.418-7.511-9.418-7.511c0,0.001,3.488,15.574,6.218,19.358
	c4.273,5.926,12.372,6.152,15.038,6.152s1.423-7.607,0.756-12.941S346.131,475.451,346.131,475.451z M287.497,486.199
	c-0.007-0.024-0.015-0.045-0.022-0.07c-0.806-3.116-0.9-3.48-0.911-3.522c-0.001-0.005-0.001-0.006-0.001-0.006
	s-0.818,6.711-6.562,11.649c-2.283,1.963-5.25,7-4,9.5s4.236,3,9.743,0s9.39-4.75,9.948-8.5s0,6.5,0,6.5h1.948
	c0,0,1.86-12.25,1.86-15s-2.102-6.754-2.102-6.754C297.396,479.998,288.478,489.643,287.497,486.199z M409.94,229.939
	c2.545,0,4.607-2.063,4.607-4.607v-1.216v-8.842v-0.198c0-2.544-2.063-4.607-4.607-4.607s-4.607,2.063-4.607,4.607v0.905v9.35
	c0,0.382,0.061,0.749,0.148,1.104C405.978,228.444,407.778,229.939,409.94,229.939z M260.692,275.212
	c0.18-1.473-0.351-3.005-1.558-4.048c-1.405-1.215-3.331-1.42-4.917-0.7c-0.587,0.267-1.131,0.65-1.581,1.17l-5.848,6.76
	l-0.862,0.997c-1.665,1.924-1.455,4.833,0.47,6.499s4.834,1.455,6.499-0.47l2.3-2.658l4.41-5.098
	C260.227,276.945,260.585,276.089,260.692,275.212z M295.342,195.759c1.292,0,2.516-0.293,3.618-0.805
	c1.184-0.549,2.227-1.351,3.048-2.347c0.183-0.222,0.353-0.453,0.513-0.692c0.919-1.373,1.457-3.021,1.457-4.792
	c0-2.586-1.148-4.904-2.955-6.488c-0.266,0.373-0.535,0.736-0.813,1.076c-0.371,0.455-0.723,0.872-1.063,1.267
	c1.122,1.031,1.83,2.505,1.83,4.145c0,1.731-0.786,3.281-2.018,4.315c-0.979,0.823-2.241,1.321-3.618,1.321
	c-1.887,0-3.556-0.935-4.579-2.363c-0.579,0.571-1.163,1.31-1.84,2.44c-0.005,0.009-0.01,0.019-0.015,0.027
	C290.491,194.636,292.785,195.759,295.342,195.759z" data-darkreader-inline-fill="" style="--darkreader-inline-fill:#076ab6;"></path>
</svg>