<?xml version="1.0" encoding="utf-8"?>
<!-- Generator: Adobe Illustrator 21.1.0, SVG Export Plug-In . SVG Version: 6.00 Build 0)  -->
<svg version="1.1" id="Layer_1" xmlns="http://www.w3.org/2000/svg" xmlns:xlink="http://www.w3.org/1999/xlink" x="0px" y="0px"
	 viewBox="0 0 64 64" style="enable-background:new 0 0 64 64;" xml:space="preserve">
<style type="text/css">
	.st0{stroke:#000000;stroke-miterlimit:10;}
	.st1{fill:none;stroke:#000000;stroke-width:3;stroke-miterlimit:10;}
	.st2{display:none;}
</style>
<g>
	<g>
		<path d="M29.8,28.9c-1.2,0.4-2.6,0.4-3.9,0.4c-1.5,0-3,0-4.4-0.1c-0.8-0.1-2.5-0.9-2.8,0.4c-0.1,0.6-0.1,1.3,0,1.9
			c0.1,2.1,2.6,3,4.4,3.3c2.3,0.4,5.5,0.1,7.1-1.7c0.6-0.7,0.7-1.4,0.7-2.2C30.9,30.1,31.1,28.4,29.8,28.9z"/>
		<path d="M45.3,31.5L45.3,31.5c0-0.5,0.1-1.1,0-1.6c-0.2-1.4-1.5-0.9-2.5-0.8c-2.7,0.3-5.6,0.3-8.2-0.2c-1-0.2-1.4,0.4-1.5,1.3
			c0,0.6-0.1,1.4,0.2,2c0.8,2.1,4,2.6,5.9,2.6C41.1,34.9,45.3,34.2,45.3,31.5z"/>
	</g>
	<path d="M61,42.2H48.8c0.6-1.1,1.1-2.3,1.4-3.5c2.5-1.1,4.3-3.2,4.3-6c0-0.8-0.1-1.6-0.4-2.4c-0.3-0.7-1.1-1.6-1.1-2.3
		c0-1.2,1.2-1.2,2.1-1.2c0.7,0,3.8,0.2,4.5-0.1c1.2-0.6,0.9-6.2,0.5-6.9c-0.4-0.8-5.4-1.4-6.9-1.7c-0.6-0.1-1.2-0.1-1.7-0.3
		c-0.9-0.3-1.1-1.2-1.4-1.9c-1.2-2.8-2.7-5.4-3.9-8.2c-0.7-1.7-1-3.3-2.7-4.3c-2.1-1.2-4.7-0.8-7-0.8c-1.6,0-3.1-0.7-4.7-1.1
		c-2-0.6-4.1-1.4-6.2-1.3c-2.9,0.1-5.6,1.9-6.8,4.5c-0.5,1.1-0.7,2.2-1.2,3.3c-0.5,1.3-1.1,2.5-1.7,3.8c-0.6,1.3-1.3,2.6-1.9,4
		c-0.3,0.7-0.5,1.7-1.2,2.1C12.3,17.9,9,18.3,8,18.5c-0.5,0.1-3.5,0.4-4,1c-0.5,0.6-0.5,6.3,0.1,6.9c0.6,0.6,1.8,0.3,2.6,0.3
		c1.5,0,5.6,0,6.2,0v0.1c-2.7,1.6-3.9,5-2.8,7.9c0.5,1.4,1.5,2.6,2.8,3.4c0.8,0.5,1,0.7,1.3,1.6c0.3,0.9,0.7,1.7,1.2,2.5
		c-4,0-8-0.1-12,0c-0.8,0-1.4,0.7-0.8,1.5c0.4,0.5,9.3,9.4,10.6,10.8c-0.2,0.7-0.3,8.2,0.1,8.9c0.7,1.1,3.1,0.7,3.3-0.6
		c0.1-1-0.3-5.4,0.2-6.1c0.4-0.5,11.1-3.2,11.6-3.5c0.1-0.6,0.3-4-0.1-4.7c-0.2-0.4-0.5-0.4-1-0.5c-0.8-0.2-1.5-0.6-2.2-0.9
		c-1.3-0.7-2.5-1.5-3.6-2.5c-2.2-2-3.8-4.6-4.6-7.5c-0.2-0.8-0.4-1.3-1.3-1.5c-0.5-0.1-0.9-0.1-1.3-0.4c-0.7-0.4-1.3-1.2-1.5-2
		c-0.6-2.3,1.3-4,3.5-3.9c0-2-0.1-4,0-6.1H7.2v-1.1l8.4-1.5c1.1-2.6,2.2-5.1,3.4-7.7c0.9-1.8,1.8-3.6,2.4-5.5c0.6-2.1,1.7-3.8,4.1-4
		c1.5-0.1,3.1,0.5,4.4,0.8c1.6,0.4,3.2,0.9,4.9,1.4c1.3,0.4,2.7,0.1,4.1,0.1c0.9,0,1.9-0.1,2.7,0.3c0.9,0.4,0.8,1.1,1.1,1.9
		c1.1,3.1,2.9,6,4.2,9c0.5,1.2,1,2.5,1.5,3.7l8.4,1.5v1.1h-9.2c0.1,2,0,4,0,6.1l0,0c0,0,0,0,0,0c4.1,0,4.2,7-0.2,6.3
		c-0.8,4.9-4.1,9.3-8.6,11.5c-0.5,0.3-1.1,0.5-1.6,0.7c-0.3,0.1-0.8,0.1-0.9,0.4c-0.2,0.3-0.5,3.8-0.6,5c0.4,0.3,9.1,2.4,11,3.1
		c1.1,0.4,0.8,4.9,0.9,6.2c0,1.3,1.1,1.6,2.2,1.5c1.4-0.2,1.2-1.4,1.2-2.4c0-1.4,0.2-6.2-0.1-7.1c2-2,10.3-10.4,10.5-10.7
		C61.9,43.2,62,42.2,61,42.2z M16.1,45.6c1.7,2.1,4.8,3.7,6.6,4.5l-0.3,0.9l-6.3,1.4l-6.8-6.9H16.1z M48,52.5l-6.3-1.4l-0.3-0.9
		c1.9-0.8,4.9-2.4,6.6-4.5h6.8L48,52.5z"/>
</g>
</svg>
