<svg width="800" height="600" xmlns="http://www.w3.org/2000/svg">

 <g>
  <title>Layer 1</title>
  <g stroke="null" id="svg_9">
   <path stroke="null" d="m281.11659,191.82674c0.22825,-0.07905 0.49652,-0.20138 0.78116,-0.34254c-0.60292,0.67943 -1.18219,1.39179 -1.73964,2.1992c-0.63293,0.91657 -1.23948,1.99217 -1.89423,3.05649c0.80207,-2.18226 1.41044,-4.41628 2.85272,-4.91315zm1.49593,1.91407c-2.68812,4.13209 -5.0234,8.58413 -10.0077,9.40095c1.09216,6.88368 -6.69938,11.97375 -11.86374,14.53901c-4.96884,2.46834 -14.33179,7.13964 -19.9381,4.42946c-7.4669,-3.60982 -21.72866,-24.66927 -10.34053,-30.69096c0.27463,-0.38112 0.54563,-0.71331 0.80116,-0.98244c-0.7075,-4.70706 -0.8239,-9.7162 -2.09884,-13.82571c-0.1064,-0.07058 -0.20188,-0.15998 -0.2719,-0.27855c-2.16796,-3.66251 -4.40775,-7.48594 -6.55206,-11.42606c-0.53926,12.58636 -2.1143,25.37222 -0.00637,37.79861c1.72873,10.19237 6.08101,18.94212 10.83614,27.90361c0.0873,0.16374 0.56745,0.29737 1.27949,0.41029c0.71659,-0.33313 1.77329,-0.51192 1.9779,-0.05552c0.04274,0.09599 0.0873,0.19009 0.13004,0.28608c2.96366,0.23714 6.91491,0.32089 7.76517,0.42723c3.07097,0.38206 6.12557,0.98338 9.1938,1.43508c3.30104,0.23338 7.11952,0.44887 11.36631,0.6032c1.15582,-0.04046 2.318,-0.10257 3.48564,-0.20985c0.62565,-0.28419 1.50866,-0.4197 1.8424,-0.1995c8.41447,-1.04455 16.68889,-4.10856 21.59135,-11.36678c0,-0.02164 0.00182,-0.04235 0.00182,-0.06399c-0.00455,-0.03952 -0.01455,-0.07528 -0.01455,-0.11857c-0.03728,-11.29338 -0.71113,-22.6084 -3.5975,-33.53289c-2.10521,1.56777 -4.10402,3.24846 -5.57994,5.5173zm313.80429,106.99866c-5.05796,-9.47718 -9.59757,-19.26866 -13.25508,-29.41868c-6.43475,-17.8524 -10.33235,-36.38705 -12.19748,-55.27742c-1.59141,5.10324 -3.74573,10.06815 -5.82092,14.88437c-3.79665,8.81375 -7.90704,17.47975 -11.66367,26.31232c-2.94093,6.91379 -6.91491,14.86179 -7.25956,22.56511c-0.47469,10.60172 7.82337,20.26145 10.90525,29.97671c4.11493,12.97313 6.68665,26.79225 5.84912,40.34599c0.07002,0.05176 0.12822,0.11575 0.17824,0.18821c5.33077,4.20079 12.06471,8.69706 19.25152,11.79401c2.06156,0.79329 4.2668,1.59882 6.48204,2.33377c6.29835,1.80773 12.72128,2.22932 18.68225,0.19479c15.07293,-5.14465 11.07622,-23.83269 5.59995,-35.05925c-4.88336,-10.00698 -11.50999,-19.01929 -16.75164,-28.83994zm-343.53457,-125.53708c0.13186,0.02258 0.2519,0.06399 0.35011,0.13363c1.36407,0.95421 5.29803,4.17256 4.45504,6.09886c2.20069,-0.02823 4.15313,0.51663 5.44535,3.12706c0.15823,-0.08752 0.32101,-0.17503 0.4756,-0.26255c0.32919,-0.18727 0.96667,-0.25973 1.45409,-0.20985c8.20713,-4.50568 12.57032,-12.57695 18.17845,-19.78905c-2.90273,-11.36207 -5.09888,-21.73888 -0.28464,-32.93627c0.26827,-0.62391 0.54745,-1.24687 0.83208,-1.86796c0.43104,-1.0182 0.90301,-2.00064 1.40408,-2.95391c3.76937,-7.70332 8.1753,-15.3436 9.53482,-23.86092c-2.77906,-7.2808 -12.132,-4.9922 -17.78742,-2.01852c-3.60113,1.89431 -8.74912,5.90124 -13.06502,5.53047c-3.55476,-0.3049 -5.188,-3.20235 -6.91491,-6.1158c-0.92484,-1.5593 -2.15613,-4.17726 -3.90305,-4.92068c-1.68599,-0.71801 -4.69512,-1.63082 -7.25137,-1.47743c-1.01487,0.23149 -1.95334,0.51286 -2.73541,0.7773c-0.38376,0.24373 -0.72114,0.54957 -0.99577,0.93069c-0.03274,0.04517 -0.07457,0.08846 -0.12095,0.12986c-1.56413,3.93071 -3.11189,7.87177 -4.59963,11.83824c0.00818,0.01317 0.02001,0.02447 0.02183,0.04046c1.77692,12.93737 0.87209,24.34085 -4.72422,36.2459c-0.01455,0.03011 -0.03728,0.05834 -0.05911,0.08563c2.10521,5.32815 4.74786,10.52455 6.81669,15.73695c2.77633,6.99096 7.6515,11.48817 13.47333,15.73789zm255.19674,-74.51032c0.02546,0.02823 0.05002,0.05834 0.07002,0.09034c0.05093,0.03764 0.08912,0.08187 0.0973,0.14021c1.5905,10.4775 7.89703,19.35053 11.81827,28.94816c4.67966,11.45335 2.59809,21.54973 -0.36102,33.11978c5.499,7.54899 10.47694,15.66449 18.76773,20.18241c0.46742,-0.15057 0.95303,-0.2042 1.19492,-0.06587c0.20825,0.11951 0.4265,0.2362 0.64202,0.35383c1.23221,-1.95736 2.92365,-2.63773 4.81788,-2.80711l0.12186,-0.10446c-0.64475,-1.98841 3.45745,-5.0289 4.71148,-5.90406c0.24917,-0.17409 0.58473,-0.25502 0.91665,-0.26537c5.86367,-4.36829 10.68336,-9.11488 13.18415,-16.42109c1.44227,-4.21396 3.40107,-8.17949 5.20709,-12.23253c0.32919,-0.73871 0.70204,-1.52448 1.08307,-2.33942c-0.00546,-0.00753 -0.01455,-0.01317 -0.0191,-0.02164c-2.56081,-5.44954 -4.12494,-10.80027 -4.907,-16.23664c-0.71841,-2.6556 -0.81207,-5.71586 -0.60837,-8.6453c-0.00364,-3.6531 0.28282,-7.38431 0.81389,-11.25291c0.00273,-0.01788 0.01273,-0.03294 0.01728,-0.04987c-1.37589,-3.68133 -2.79634,-7.34385 -4.24497,-10.99601c-0.47197,0.0207 -0.85481,-0.12233 -0.86391,-0.48652c-0.22371,-9.38872 -5.87822,-21.90921 0.3301,-30.10281c-2.95093,0.42535 -5.96006,1.7268 -8.72729,2.27637c-0.43104,0.08563 -0.78206,0.01223 -1.04215,-0.14586c-3.39925,0.95327 -7.37141,1.40967 -10.33598,-0.40559c-0.57473,-0.2889 -1.02669,-0.66814 -1.38225,-1.10101c-0.15005,-0.15245 -0.30464,-0.29831 -0.44559,-0.46958c-0.86391,-1.04173 -1.70054,-2.5248 -2.15159,-4.08316c-3.37379,0 -6.74758,0 -10.12228,0c-0.00909,0.01694 -0.01364,0.0367 -0.02273,0.05364c-0.14186,0.23526 -0.32192,0.42911 -0.51471,0.60509c0.81935,4.43699 -2.86363,7.69203 -6.70029,8.92008c-0.14095,0.04517 -0.27009,0.06493 -0.39376,0.07622c-5.17527,1.96488 -10.37418,3.91753 -15.35575,6.3774c-1.35043,0.66719 -2.84362,1.39838 -4.36501,2.21238c6.80305,4.01634 8.96282,13.01077 8.77004,20.78091zm-253.40254,79.11764c-0.04547,-0.05552 -0.09003,-0.1101 -0.13913,-0.16656c-0.98577,-1.13207 -2.15159,-2.00535 -3.36651,-2.85416c-0.14914,-0.10351 -0.23826,-0.2155 -0.28191,-0.32842c-2.05883,-1.48401 -4.05855,-3.01226 -5.90732,-4.67036c0.20734,0.27949 0.33647,0.45076 0.33647,0.45076l9.3584,7.56876zm254.22917,29.54007c0.22189,-3.33409 0.56836,-6.64748 1.08762,-9.94393c-0.76297,3.15906 -1.26313,6.6136 -1.08762,9.94393zm-236.59361,24.43401c8.70729,-0.52228 13.92439,-3.96176 16.78347,-6.78487c-4.79969,3.68039 -10.85433,5.73279 -16.78347,6.78487zm242.54185,-44.66535c-2.94002,10.3514 -3.61477,20.78561 -3.63751,31.52472c0,0.01788 -0.00546,0.032 -0.00728,0.04987c0.20552,14.74228 5.22164,28.86347 6.99766,43.41377c0.60201,4.93668 1.01668,9.90911 1.03214,14.88908c0.01273,4.17067 -0.46651,8.37993 -0.42195,12.54966l0.01728,0.17786c1.21584,-3.76226 2.79361,-7.43042 4.26407,-10.92826c3.15372,-7.50194 6.83124,-14.84955 9.40751,-22.59523c0.02728,-0.08187 0.07366,-0.15715 0.12913,-0.22867c0.83117,-2.57185 1.71963,-5.12488 2.65811,-7.66004c0.31555,-1.22805 0.49743,-1.97335 0.49743,-1.97335l0.95394,-1.83784c4.05673,-10.32693 8.93281,-20.32545 14.30269,-29.95131c-5.60176,1.30616 -11.80372,1.75974 -16.49792,-1.66469c-4.20041,-3.06496 -5.34896,-7.63839 -4.13585,-12.53178c-6.13375,-0.55898 -7.72425,-6.58161 -11.31447,-10.80498c-0.62565,-0.73683 -1.31314,-1.41344 -2.0361,-2.0524l-1.67871,-1.37015c-0.32919,-0.25408 -0.66112,-0.50534 -0.99668,-0.75189c-0.05638,0.1101 -0.21916,0.43382 -0.45469,0.93257c0.60292,-0.01694 1.08762,0.22773 0.9212,0.81306zm-72.20911,148.39391c2.96002,-3.83472 5.98007,-7.64968 9.4357,-11.00918c3.55385,-3.45643 7.24683,-6.73594 10.67427,-10.30717c-0.26827,-0.15057 -0.51744,-0.3783 -0.74114,-0.70201c-0.67658,-0.97774 -0.3301,-1.73057 0.44287,-2.29989c-8.52723,-1.18853 -17.61828,-2.76759 -23.69292,-8.88527c1.12217,9.81877 2.34256,19.62437 3.45563,29.44221c0.14277,1.25252 0.28464,2.50692 0.42559,3.76132zm2.298,-138.67583c-0.12822,-0.14586 -0.16642,-0.35289 -0.04365,-0.63896c0.59928,-1.3965 0.85572,-3.05743 0.82026,-4.58191c0.00091,-0.16374 -0.0291,-0.3256 -0.04092,-0.4884c-1.40226,1.62705 -2.62264,3.43572 -4.15131,4.9395c-1.32951,1.30804 -2.83544,2.39023 -4.7424,2.3253c-1.98699,-0.06775 -2.8609,-2.27354 -3.38652,-3.92883c-0.00637,-0.01976 -0.01455,-0.04046 -0.02001,-0.06023c-0.0191,-0.05834 -0.02455,-0.11575 -0.02455,-0.17127c0,-0.02258 0.00364,-0.04517 0.00637,-0.06681c0.00364,-0.01788 0.00455,-0.03388 0.01,-0.0527c0.03092,-0.15339 0.11822,-0.29549 0.25099,-0.42253c3.17827,-3.68886 5.91459,-8.08633 8.12711,-12.80186c-0.03001,-0.02164 -0.06002,-0.04517 -0.08366,-0.07528c-3.32741,-4.38429 -6.57935,-8.97561 -7.82428,-14.50137c-1.28131,-5.68857 -2.76996,-13.04182 -1.76237,-18.80755c1.20492,-6.89591 4.13767,-13.5114 6.89035,-19.8841c1.59959,-3.70392 4.1313,-8.63871 4.2959,-13.15663c-0.84208,-4.15373 -1.50229,-8.16349 -4.11402,-11.90882c-0.05274,-0.04893 -0.09912,-0.1054 -0.13823,-0.17033c-4.48414,-7.47183 -15.37211,-3.48842 -22.28065,-4.41722c-8.64454,-1.16218 -15.55399,-5.67445 -21.5386,-11.99916c-0.40831,0.37453 -1.11035,0.4724 -1.66325,0.35477c-2.61446,1.06055 -4.98066,2.53045 -7.05859,4.3043l0.03274,0.0367c0.63656,-0.3303 1.58595,-0.56368 1.91606,-0.26443c7.22409,6.52326 7.69333,17.71031 7.2923,26.93152c-0.00909,0.2155 -0.18278,0.39994 -0.43559,0.54768c-0.03365,2.83628 0.26463,5.66128 1.24039,8.35452c1.36316,3.7632 3.67843,6.95991 5.17345,10.6243c3.08097,7.54711 1.63415,15.39724 -1.98972,22.51712c-3.08097,6.05463 -7.52419,11.04777 -11.32993,16.56883c-1.30678,2.19638 -2.66629,4.52733 -3.93306,6.78017c-2.89637,6.32188 -4.04855,13.17451 -4.13221,20.33109c0,0.02729 -0.01,0.05364 -0.01455,0.08093c0.00728,0.04141 0.01819,0.07999 0.01819,0.12704c-0.09367,19.66107 -4.30681,39.03419 -4.35774,58.65856c-0.0291,11.49194 3.77392,23.24266 7.12133,34.0674c3.46473,11.20774 7.41688,22.23669 11.36449,33.2694c0.94121,2.63208 2.09793,5.31309 2.72995,8.05339c1.64415,-7.79084 3.07915,-15.5591 3.58477,-23.70471c1.04487,-16.8295 1.34497,-33.71075 2.50624,-50.52989c1.11581,-16.17453 3.68571,-32.25026 5.90913,-48.2874c0.17187,-1.23558 2.86363,-1.59788 2.67175,-0.20609c-2.08156,15.00765 -4.47596,30.04917 -5.67906,45.16975c-0.98486,12.3831 -1.22493,24.83489 -1.84876,37.24057c-0.62565,12.40662 -1.36134,24.68338 -3.45745,36.93568c-0.74933,4.3777 -2.18432,8.54837 -3.11189,12.88091c-0.72568,3.38961 -1.9297,8.11926 0.81389,10.90755c4.79697,4.87645 13.91438,5.15217 20.57739,4.41064c0.3974,-0.2155 0.91847,-0.28325 1.34042,-0.1675c0.08184,-0.01129 0.17096,-0.01976 0.25099,-0.032c2.76451,-0.39429 5.54811,-0.60509 8.32262,-0.88834c4.38593,-0.93351 8.5245,-1.84725 11.27992,-2.46081c0.19461,-0.50251 0.94666,-0.8554 1.59596,-0.88552c0.28554,-2.8871 -0.39103,-6.28518 -0.63293,-8.95396c-0.562,-6.19484 -1.25403,-12.37651 -1.96607,-18.55536c-1.23221,-10.68265 -2.59536,-21.354 -3.75937,-32.04699c-0.10913,-0.18444 -0.22098,-0.36512 -0.32556,-0.55521c-0.23462,-0.42441 -0.12368,-0.82435 0.15096,-1.13113c-0.24644,-2.31119 -0.49925,-4.62143 -0.72114,-6.93544c-1.21038,-12.59577 -0.09094,-25.32141 1.2704,-37.86166c1.99881,-18.42361 4.90791,-36.76629 9.00375,-54.81725zm131.79969,38.46298c1.04215,5.5013 2.27526,10.95931 3.7239,16.35804c-1.29132,-5.42978 -2.56353,-11.06847 -3.7239,-16.35804zm-26.12368,-170.45839c-0.66839,0.12704 -1.34042,0.24937 -2.00791,0.36606c0.6593,-0.04329 1.32769,-0.13457 2.00336,-0.28043c-0.00091,-0.02823 0.00273,-0.0574 0.00455,-0.08563zm-154.70873,274.48903l-0.36466,5.31591c0,0 0.00182,0.06023 0.00455,0.16468c0.44014,-2.01946 0.87664,-4.0314 1.30678,-6.03769c-0.24189,0.2889 -0.58109,0.48369 -0.94666,0.55709zm-10.02134,-248.10519c0.00091,-0.10634 0.11367,-0.23149 0.28009,-0.35571c-0.11822,0.10351 -0.24644,0.19668 -0.36193,0.30207c0.02728,0.01788 0.05183,0.03388 0.08184,0.05364zm0.32919,-0.39712c0.08275,-0.0574 0.18006,-0.11198 0.28464,-0.16562l-0.03274,-0.0367c-0.08184,0.07058 -0.17096,0.13175 -0.2519,0.20232z" fill="#FBC02D" id="svg_7"/>
   <path stroke="null" fill="#0984E3" d="m536.53522,44.37386c0.50652,0.49593 1.19674,0.8187 1.89787,0.65684c0.48379,-0.11104 1.37316,-0.15339 1.5423,0.50063c0.16187,0.62579 -0.61019,1.12077 -1.09307,1.23276c-1.77056,0.40747 -3.43381,0.08187 -4.76968,-1.22523c-0.48197,-0.4724 0.28282,-1.14712 0.64475,-1.32027c0.57382,-0.27572 1.29768,-0.31525 1.77783,0.15527zm6.16831,-16.48037c1.21311,0 2.42531,0 3.63751,0c0.60474,0 1.38498,-0.19479 1.73509,-0.76318c0.33374,-0.5411 -0.281,-0.86952 -0.73205,-0.86952c-1.21311,0 -2.42531,0 -3.63751,0c-0.60474,0 -1.38498,0.19479 -1.73509,0.76318c-0.33374,0.5411 0.28009,0.86952 0.73205,0.86952zm-221.83624,83.6092c0.13823,7.65157 0.57655,15.32854 0.62565,22.97164c0.11003,17.22285 -7.19136,31.62447 -19.58253,42.81716c-3.2392,2.92568 -6.6239,5.6434 -10.08863,8.27453c-0.41649,0.31619 -0.83663,0.62579 -1.2604,0.93351c3.15918,11.3903 3.85849,23.2436 3.89668,35.04137c0,0.07058 -0.01,0.13739 -0.02728,0.20138c-0.23644,9.98534 -3.85758,18.85272 -6.9431,28.16522c-1.53321,4.62613 -2.98821,9.43201 -3.25375,14.34986c-0.29555,5.46083 1.11944,10.40316 1.58504,15.77459c1.77329,20.45813 -6.50659,39.02102 -8.51723,58.99451c-0.48743,4.83975 -0.1937,9.24851 0.66839,13.9998c0.47651,2.62643 0.89119,5.32627 0.9985,8.02328c5.66087,14.25106 12.20566,29.41209 -0.02546,42.14149c-0.01455,0.01506 -0.03547,0.02823 -0.05365,0.04329c4.23406,3.55712 8.39264,7.18011 9.86674,12.82068c0.05911,0.22773 -0.45196,0.43758 -0.572,0.49216c-7.84975,3.62675 -19.03327,2.47681 -27.20857,0.90339c-3.9567,-0.76224 -9.56301,-1.86608 -10.31689,-6.91756c-0.44923,-3.00755 0.39103,-6.63431 -1.11944,-9.39907c-0.92029,-1.68634 -1.74691,-3.47431 -2.99003,-4.94421c-0.54199,-0.64179 -1.94607,-2.43352 -3.24011,-3.60041c-0.29737,1.84349 -0.15914,4.52544 -0.21916,5.48248c-0.20552,3.27292 -0.35829,6.54867 -0.48106,9.82536c-0.14004,3.75379 0.87118,6.14403 -2.56263,7.82284c-6.35837,3.1073 -6.58298,-3.54771 -6.55934,-8.55873c0.02001,-4.31559 0.23462,-8.6246 0.50834,-12.93078c0.11276,-1.7635 0.86482,-4.75788 0.31555,-6.51668c-8.28261,-10.6563 1.40044,-25.71852 5.52538,-36.09533c0.07821,-0.19668 0.24008,-0.35948 0.44469,-0.48557c0.23553,-0.47616 0.45651,-0.96739 0.62565,-1.50754c1.1731,-3.73121 1.52866,-7.71273 1.83149,-11.60392c0.69476,-8.92103 0.72295,-18.10272 3.15736,-26.75272c2.84726,-10.12273 9.31293,-18.8132 7.38233,-29.8732c-3.06369,-17.55315 -12.24022,-33.59312 -19.43339,-49.58697c-3.39289,-0.30019 -3.26194,-0.33689 -5.05341,-3.79802c-3.03095,-5.85889 -6.14739,-11.74602 -7.76517,-18.22599c-4.07128,-16.30346 -1.34133,-33.02097 -1.16855,-49.59356c-3.5884,-7.07095 -6.67665,-14.44114 -8.34627,-21.85933c-2.66902,-11.85894 0.29191,-23.01963 3.77755,-34.22738c-2.15341,1.3805 -4.42685,2.46269 -6.76759,3.41126c-2.25162,1.2544 -4.56598,2.32342 -6.45567,2.71301c-1.23948,0.25502 -2.47169,0.60509 -3.65752,1.00691c-7.25956,3.08566 -10.48785,8.03739 -9.91039,16.88313c0.05002,0.76506 -2.13431,1.44073 -2.5508,0.86199c-13.27782,-18.47913 -5.22074,-45.21492 9.94131,-59.84427c6.49023,-6.26166 15.38757,-8.97278 23.89025,-10.69488c10.04771,-2.03546 21.36673,-2.8711 28.94093,-10.84356c0.04638,-0.04893 0.11458,-0.0941 0.19188,-0.13739c-0.60019,-3.14494 -0.44832,-6.91474 -0.02728,-10.60736c-10.41328,-11.38842 2.51261,-27.71258 16.62615,-31.86349c1.55776,-0.71707 3.19828,-0.96456 4.80697,-0.91751c5.6054,-0.46675 11.00165,1.29581 14.79284,6.3727c0.16278,0.21738 0.18551,0.43288 0.11913,0.63238c0.05729,-0.01223 0.11549,-0.02353 0.17005,-0.032c2.81361,-0.41594 5.62723,0.33783 7.44234,2.70172c0.68203,0.88834 -1.06215,1.63176 -1.68235,1.51413c-0.71841,-0.13739 -1.40135,0.06775 -2.08429,0.32183c5.37078,6.94767 6.19832,22.96976 -1.70781,27.72481c-0.06729,0.04046 -0.13459,0.07058 -0.20188,0.09881c0.22916,1.51883 0.18642,3.16565 -0.7175,4.2516c-0.70386,0.84505 -1.62051,1.31651 -2.61173,1.51789c0.46651,0.9975 0.42923,2.21708 -0.2137,3.27387c-0.87482,1.43696 -2.43349,2.29519 -4.02854,2.29895c-0.11003,2.71583 -0.38558,5.66128 0.28827,8.21525c0.8148,3.08378 3.04641,5.36861 5.1589,7.58569c0.10185,0.10634 0.15732,0.2155 0.18733,0.32278c10.85342,4.10668 26.01638,8.53426 32.30927,19.43617c3.40471,5.90218 3.21101,14.57571 3.33014,21.19402zm-40.42273,-62.3239c-0.94121,-0.12892 -1.90878,0.2042 -2.1143,1.29204c-0.14004,0.73777 0.10822,1.45202 0.61383,1.93195c0.22098,0.06587 0.4074,0.18538 0.53017,0.36418c0.07639,0.0367 0.15187,0.07528 0.23462,0.10351c0.86755,0.29266 1.45409,-0.2362 1.68417,-1.18476c0.25826,-1.06525 -0.05002,-1.96865 -0.94848,-2.50692zm-14.24631,-24.13288c0.20916,-0.02353 0.41649,-0.04987 0.62838,-0.07246c1.37225,-0.14868 3.18009,-0.37924 4.80788,-0.17315c-1.47319,-0.4357 -3.38016,-0.18444 -5.43626,0.24561zm-22.45071,342.09873c2.70631,7.40219 6.53206,14.66135 11.63275,20.59929c3.67934,4.28454 8.85188,9.31156 14.73009,9.44518c-8.08164,-11.3282 -13.17051,-23.90138 -11.33539,-38.23431c0.05638,-0.44229 0.12822,-0.88269 0.19097,-1.3231c-0.04183,-0.15339 -0.08457,-0.30584 -0.12458,-0.44417c-0.06911,-0.23902 0.05729,-0.46581 0.28373,-0.65496c2.27799,-14.69617 7.9134,-28.73549 10.88252,-43.28862c1.80602,-8.85421 2.69903,-17.75736 3.77119,-26.72167c0.47742,-3.9947 1.16127,-8.01104 1.20856,-12.04621c0.15459,-13.41071 -4.19587,-27.1856 -7.23137,-40.07027c-10.43329,1.02102 -20.48736,-1.15277 -30.80061,-2.28672c6.84034,15.03212 15.37393,30.15175 18.58858,46.55213c1.82967,9.33602 -1.02851,16.3938 -4.53416,24.89041c-3.6848,8.93044 -4.55871,18.03684 -5.20164,27.63353c-0.45378,6.78111 -0.44287,14.02427 -3.41289,20.18147c0.02728,0.13269 0.01364,0.2889 -0.06002,0.47428c-0.27009,0.67943 -0.56836,1.38238 -0.88301,2.10228c-0.87846,4.22714 0.96576,9.5534 2.29527,13.19145zm26.36194,31.21418c-12.36117,0.86011 -21.75958,-14.25106 -26.40013,-24.23733c-2.06338,-4.44075 -4.19041,-9.47341 -4.81515,-14.54184c-4.06674,8.92008 -8.21713,19.33265 -2.07702,27.09056c0.10731,0.13551 0.15096,0.27008 0.15005,0.40182c0.41649,1.51507 -0.17915,3.94953 -0.2719,5.42507c-0.21825,3.43761 -0.43832,6.87992 -0.52016,10.32505c-0.07366,3.10918 -0.84299,8.1522 0.48834,11.06c1.27313,2.7817 3.08825,1.44826 3.14917,-0.52416c0.15823,-5.13524 0.3301,-10.278 0.69931,-15.401c0.15278,-2.12016 -0.41104,-6.55808 2.1525,-7.26857c2.2889,-0.6352 4.13494,2.15215 5.5572,3.63522c2.34528,2.44387 4.7033,6.23248 4.81424,9.76608c0.12186,3.9053 -0.33647,8.66695 3.93579,10.5876c2.57808,1.15747 5.4017,1.72398 8.17894,2.10416c2.01336,0.27572 21.62317,1.5113 20.66378,-1.17347c-2.76451,-7.73344 -10.51331,-11.46935 -15.70495,-17.2492zm3.92669,-22.63475c-6.57844,4.95926 -10.48512,-2.84475 -12.83495,-10.12367c0.44105,11.49758 4.897,21.78405 12.01651,31.52001c0.18733,0.25596 -0.02183,0.47522 -0.33283,0.64743c1.43682,1.55365 3.05187,2.97462 4.70421,4.37017c9.13106,-10.61865 5.56539,-22.9387 0.95394,-34.79859c-0.59473,3.24375 -1.84785,6.38023 -4.50687,8.38463zm17.61464,-150.9827c-0.80298,0.81023 -1.65416,1.56588 -2.55535,2.25661c-4.79878,3.68039 -10.85433,5.73373 -16.78347,6.78487c-0.61019,0.10728 -1.21766,0.20609 -1.82421,0.2936c3.04914,12.81974 7.59057,26.82236 7.12315,40.17473c-0.41377,11.81942 -2.17432,24.25051 -4.44049,35.7735c-3.03005,15.40194 -8.97464,30.1988 -11.39177,45.70237c-0.06548,0.4197 -0.10549,0.83094 -0.16005,1.24687c1.11944,4.24219 4.71421,20.3772 9.76762,18.61841c1.96971,-0.68602 3.79392,-4.31748 4.31772,-6.71712c0.572,-2.62361 0.60655,-5.1597 0.40558,-7.66662c-0.20097,-0.50534 -0.40013,-1.00879 -0.59564,-1.51036c-0.07366,-0.18821 0.10003,-0.39524 0.38467,-0.57309c-0.51562,-4.11327 -1.46683,-8.18231 -1.54867,-12.45273c-0.14186,-7.35702 1.32951,-14.58795 2.95548,-21.71442c2.08975,-9.15817 4.50596,-18.31916 5.55084,-27.68906c0.5529,-4.96208 0.89301,-9.99851 0.46105,-14.98789c-0.38739,-4.46428 -1.68417,-8.86362 -1.78238,-13.34296c-0.34374,-15.53463 8.78822,-28.93687 10.11591,-44.19672zm-3.45836,-36.51786c-2.10521,1.56683 -4.10402,3.24752 -5.57994,5.51636c-2.68812,4.13209 -5.0234,8.58413 -10.0077,9.40095c1.09216,6.88368 -6.69938,11.97375 -11.86374,14.53901c-4.96884,2.46834 -14.33179,7.13964 -19.9381,4.42946c-7.4669,-3.60982 -21.72866,-24.66927 -10.34053,-30.69096c0.28373,-0.14962 0.57109,-0.29643 0.88755,-0.42723c-0.03001,-0.18444 -0.05729,-0.36983 -0.08639,-0.55521c-0.7075,-4.70706 -0.8239,-9.7162 -2.09884,-13.82571c-0.1064,-0.07058 -0.20188,-0.15998 -0.2719,-0.27855c-2.16796,-3.66251 -4.40775,-7.48594 -6.55206,-11.42606c-0.53926,12.58636 -2.1143,25.37222 -0.00637,37.79861c1.72873,10.19237 6.08101,18.94212 10.83614,27.90361c0.0873,0.16374 0.56745,0.29737 1.27949,0.41029c0.71659,-0.33313 1.77329,-0.51192 1.9779,-0.05552c0.04274,0.09599 0.0873,0.19009 0.13004,0.28608c2.96366,0.23714 6.91491,0.32089 7.76517,0.42723c3.07097,0.38206 6.12557,0.98338 9.1938,1.43508c1.92788,0.28513 3.86031,0.51286 5.80637,0.59003c1.79875,0.07058 3.66752,0.07716 5.55993,0.01317c1.15582,-0.04046 2.318,-0.10257 3.48564,-0.20985c0.62565,-0.28419 1.50866,-0.4197 1.8424,-0.1995c8.41447,-1.04455 16.68889,-4.10856 21.59135,-11.36678c0,-0.02164 0.00182,-0.04235 0.00182,-0.06399c-0.00455,-0.03952 -0.01455,-0.07528 -0.01455,-0.11857c-0.03638,-11.29244 -0.71113,-22.60746 -3.5975,-33.53195zm-46.38825,11.99821c-0.33192,0.06399 -0.64566,0.05646 -0.94666,-0.00471c-0.10276,0.6879 -0.28736,1.38332 -0.60383,2.09098c-0.37284,0.83282 -1.81875,1.19135 -2.5408,0.70484c-3.50201,-2.35541 -5.09251,-5.94076 -5.96824,-9.93734c-8.67364,4.93479 4.27407,23.59837 9.71488,26.6925c4.67329,2.65749 12.82586,-1.165 17.12176,-3.29927c4.74331,-2.35636 13.06684,-6.87145 11.17261,-13.61209c-0.03456,-0.12328 -0.03547,-0.23902 -0.02092,-0.35101c-0.72205,-1.25534 -1.71054,-3.46772 -3.43563,-3.36703c-2.01427,0.11575 -3.09188,1.41061 -4.8006,2.24249c-1.6969,0.82623 -3.3747,1.00409 -4.60145,-0.38488c-1.30859,0.25973 -2.39439,-0.12798 -2.96548,-1.68257c-0.98304,0.11104 -1.77056,-0.2889 -2.19433,-1.49907c-0.19643,0.01976 -0.39649,0.02823 -0.60019,0.02729c-0.15187,-0.00094 -0.79298,-0.016 -0.78116,-0.31713c0.22462,-6.34259 5.5563,-9.16758 10.47785,-11.73755c-0.07548,-0.04705 -0.13732,-0.10446 -0.17187,-0.1835c-1.09762,-2.47022 -2.90091,-2.97462 -4.92973,-2.94168c-0.00728,0.00188 -0.01273,0.00376 -0.0191,0.00565c-0.7366,0.16845 -1.48319,0.2155 -2.22616,0.17033c-1.00395,0.11387 -2.017,0.22961 -2.9964,0.21173c0.74933,1.86702 1.41226,3.76038 1.59505,5.79584c0.29009,3.24093 -1.72782,4.03422 -3.93669,3.49689c0,0.00188 0,0.00376 0,0.00659c0.12913,2.63114 -1.47137,3.43196 -3.24193,3.05366c0.2137,2.32154 -0.47288,4.31183 -3.10098,4.81905zm7.89794,-9.37743c0.21188,0.05834 0.14732,-0.00941 0,0l0,0zm0.53108,-8.41757c0.12549,-0.08093 0.26827,-0.16186 0.42013,-0.23902c-0.21188,-0.08469 -0.42286,-0.17597 -0.62929,-0.27384c0.07002,0.17127 0.13913,0.34254 0.20916,0.51286zm-17.63919,-38.70012c2.10521,5.32815 4.74786,10.52455 6.81669,15.73695c2.77451,6.9919 7.65059,11.48911 13.47243,15.73883c0.13186,0.02258 0.2519,0.06399 0.35011,0.13363c1.36407,0.95421 5.29803,4.17256 4.45504,6.09886c2.20069,-0.02823 4.15313,0.51663 5.44535,3.12706c0.15823,-0.08752 0.32101,-0.17503 0.4756,-0.26255c0.32919,-0.18727 0.96667,-0.25973 1.45409,-0.20985c8.20713,-4.50568 12.57032,-12.57695 18.17845,-19.78905c-2.90273,-11.36207 -5.09888,-21.73888 -0.28464,-32.93627c0.26827,-0.62391 0.54745,-1.24687 0.83208,-1.86796c0.45196,-0.98715 0.92393,-1.97053 1.40408,-2.95391c3.76937,-7.70332 8.1753,-15.3436 9.53482,-23.86092c-2.77906,-7.2808 -12.132,-4.9922 -17.78742,-2.01852c-3.60113,1.89431 -8.74912,5.90124 -13.06502,5.53047c-3.55476,-0.3049 -5.188,-3.20235 -6.91491,-6.1158c-0.92484,-1.5593 -2.15613,-4.17726 -3.90305,-4.92068c-1.68599,-0.71801 -4.69512,-1.63082 -7.25137,-1.47743c-1.02214,0.06117 -1.97153,0.29454 -2.73541,0.7773c-0.38376,0.24373 -0.72114,0.54957 -0.99577,0.93069c-0.03274,0.04517 -0.07457,0.08846 -0.12095,0.12986c-1.56413,3.93071 -3.11189,7.87177 -4.59963,11.83824c0.00818,0.01317 0.02001,0.02447 0.02183,0.04046c1.77692,12.93737 0.87209,24.34085 -4.72422,36.2459c-0.01273,0.03011 -0.03638,0.0574 -0.0582,0.08469zm2.69358,-30.68343c-0.43923,1.24687 -0.88301,2.49092 -1.30132,3.74438c-1.69144,5.06654 -5.33532,12.89408 -4.11039,18.39067c0.42286,1.89713 0.98486,3.76885 1.6296,5.62269c3.64024,-9.12429 4.58963,-18.08107 3.7821,-27.75775zm50.79873,16.64129c-2.26344,5.2651 -4.034,10.72405 -3.60113,16.58859c0.3883,5.2651 1.60778,10.3354 2.90637,15.41135c3.10643,-3.59382 6.58753,-6.81499 9.67032,-10.42857c2.22616,-2.60855 5.15799,-5.40437 4.77514,-9.10735c-1.09489,-10.58854 -3.85303,-21.02369 -4.78242,-31.63953c-2.49169,6.58914 -6.20923,12.75763 -8.96828,19.1755zm32.46659,-0.91939c-0.41377,-6.88933 -0.10185,-13.80124 -0.45469,-20.69433c-0.31192,-6.09603 -0.46378,-14.18801 -4.58235,-19.05034c-7.59785,-8.97184 -20.09997,-12.91478 -30.59873,-16.90572c-0.22098,-0.08375 -0.29555,-0.20044 -0.27372,-0.3303c-0.00273,-0.00282 -0.00728,-0.00471 -0.01,-0.00847c-2.15341,-2.25849 -4.72331,-4.83316 -5.38715,-8.07786c-0.65566,-3.20329 -0.33465,-6.58537 -0.29737,-9.8423c-1.17764,-0.92127 -1.78147,-2.43823 -0.96394,-3.95988c1.14491,-2.12674 3.60568,-2.6716 5.77818,-2.39306c0.0682,0.00847 0.13823,0.01412 0.20643,0.02353c0.04547,0.00753 0.09367,0.00847 0.13913,0.01694c0.07275,0.01223 0.11276,0.05364 0.17005,0.07999c0.02546,0.01129 0.05365,0.01129 0.07821,0.02353s0.04274,0.03105 0.06638,0.04423c0.01546,0.00753 0.02637,0.01882 0.04092,0.02541c0.20188,0.11387 0.3883,0.24091 0.55563,0.38488c0.14277,0.03952 0.28282,0.09316 0.42923,0.11763c0.14095,0.02353 0.25281,0.03011 0.34193,0.03011c0.27463,-0.29078 0.51107,-0.83094 0.61019,-1.18665c0.44741,-1.60353 0.14914,-3.44137 -0.34102,-4.99973c-0.27372,-0.87046 -0.63475,-1.85478 -1.15491,-2.69325l-1.53594,-1.22241c-0.39831,0.64743 -0.65384,1.41344 -0.87118,2.12298c-0.15732,0.51192 -1.71781,0.80553 -2.34074,0.69825c-0.74296,0.766 -1.17582,0.49875 -1.42863,-0.05552c-4.32227,-1.1603 -0.22189,-12.1836 -5.06978,-14.31034c-6.33654,-2.77888 -13.02956,2.30272 -18.37488,-1.57906c-0.48561,3.58535 -1.24039,7.34855 -1.66689,11.09576c0.04729,0.15151 0.02819,0.30207 -0.05183,0.44417c-0.39831,3.74344 -0.43832,7.46054 0.49834,10.95366c1.26767,4.72683 4.05037,6.22025 8.53269,6.88368c1.97971,0.2936 4.55689,0.766 5.45535,2.94921c1.3768,3.34256 -0.45924,7.82942 -3.22283,9.80748c-3.52293,2.5201 -7.62331,2.63584 -11.58456,1.64305c-0.18369,0.04329 -0.37557,0.05552 -0.57018,0.01694c-2.7154,-0.53827 -6.18831,-2.1785 -9.31111,-2.55209c-0.56563,-0.03105 -1.10398,-0.04423 -1.59414,-0.02917c-2.08247,0.06211 -5.29621,2.13521 -8.26988,4.96491c-1.87332,2.22837 -3.3456,4.89245 -4.54871,7.45301c-4.17404,8.87774 -6.95401,18.50172 -9.83764,27.89514c-3.85758,12.56754 -5.68997,24.40672 -1.19401,37.06554c1.79966,5.06748 3.98671,10.07191 6.38929,14.97565c0.12095,0.01976 0.19824,0.05646 0.19824,0.11292c0,0.09599 -0.00364,0.19197 -0.00455,0.28796c2.7254,5.52765 5.72453,10.92167 8.79732,16.11243c0.06911,0.11669 0.10185,0.23055 0.12004,0.3416c0.17096,0.06305 0.30009,0.16939 0.35102,0.33124c2.40894,7.62239 0.6593,18.57041 6.48113,24.58646c0.10094,-0.92127 0.03638,-1.83032 -0.12458,-2.73371c-1.37225,-2.57279 -2.07611,-6.32659 -2.32255,-7.94611c-0.14277,-0.93633 2.45077,-1.56588 2.62628,-0.75377c0.17096,0.06305 0.28736,0.17315 0.31101,0.33595c0.37284,2.54739 1.455,4.95173 1.95698,7.37584c0.36284,0.65402 0.77388,1.2384 1.24585,1.70516c0.05911,0.05834 0.09639,0.10728 0.13368,0.15621c0.00546,-0.02823 0.00455,-0.05176 0.01455,-0.08469c0.13186,-0.44887 0.22734,-0.88646 0.20279,-1.3645c-0.04911,-0.97774 -0.20734,-1.94136 -0.47379,-2.88334c-0.54472,-1.9216 -1.24585,-3.89119 -2.29072,-5.58882c-0.54472,-0.88457 2.02064,-1.7428 2.45441,-1.03702c0.7757,1.26099 1.81785,3.33221 2.43531,5.44578c0.23644,0.00753 0.44469,0.06023 0.59019,0.17786c0.16733,0.13645 0.3392,0.27384 0.51653,0.40276c0.00091,-0.17127 -0.00455,-0.34066 -0.01728,-0.49028c-0.10185,-1.2497 -0.36739,-2.48151 -0.69022,-3.68886c-0.56927,-2.13333 -1.25676,-4.23843 -2.0461,-6.29459c-0.34556,-0.89963 2.25707,-1.71457 2.63447,-0.73119c0.89846,2.3413 1.9006,4.90468 2.41167,7.46712c0.01,0.00565 0.02092,0.00847 0.03092,0.01506c0.43741,0.28702 0.87937,0.59379 1.35679,0.80835c0.09912,0.04517 0.16642,0.06964 0.24008,0.09787c0.07184,-0.38488 0.04547,-0.80835 -0.00091,-1.1763c-0.18733,-1.4539 -0.57836,-2.8711 -1.03851,-4.25537c-0.77388,-2.33283 -1.92151,-4.57344 -2.60264,-6.92979c-0.31192,-1.07843 1.97062,-1.66563 2.53171,-0.93445c1.44773,1.88584 3.75027,3.52606 6.16012,3.62487c1.07216,0.04329 0.74569,-0.58532 0.17642,-1.27134c-0.04547,-0.05552 -0.09003,-0.1101 -0.13913,-0.16656c-0.98577,-1.13207 -2.15159,-2.00535 -3.36651,-2.85416c-0.14914,-0.10351 -0.23826,-0.2155 -0.28191,-0.32842c-2.05883,-1.48401 -4.05855,-3.01226 -5.90732,-4.67036c-3.52384,-3.16376 -6.49114,-6.81122 -8.20622,-11.59639c-1.65416,-4.6139 -3.65843,-8.99725 -5.64814,-13.46247c-1.50229,-3.37362 -3.84576,-7.58193 -3.94033,-11.38842c-0.15096,-6.05839 2.29982,-12.43486 4.2086,-18.04249c2.48078,-7.28644 5.2562,-14.4562 8.09891,-21.59867c-0.05093,-0.11481 -0.02728,-0.26255 0.10822,-0.44982c2.67812,-3.70674 8.41083,-3.63334 12.34753,-2.58503c2.46714,0.6559 4.36046,1.51601 5.85457,3.75285c1.49956,2.24625 2.91637,6.2259 5.36078,7.55558c3.70753,2.01852 10.73793,-3.71615 14.0326,-5.25287c3.22647,-1.50566 6.43021,-2.56527 9.98405,-2.745c4.31954,-0.21832 8.23714,1.67128 9.97314,5.5173c0.10003,0.07811 0.16278,0.18821 0.20279,0.31525c0.00091,0.00376 0,0.00753 0.00182,0.01129c0.02092,0.06964 0.04638,0.13739 0.04365,0.22397c0,0.01976 0,0.03952 0,0.05929c0.17915,0.48369 0.33556,0.98715 0.44741,1.52542c0.0682,0.32654 -0.12913,0.61544 -0.43923,0.8347c0.12731,7.7532 1.5905,15.53463 2.88818,23.12879c0.62565,3.65781 1.30587,7.31185 1.82057,10.98848c0.21461,1.53577 0.92666,4.08127 0.36739,5.62928c-1.33224,3.68792 -4.64783,7.09353 -7.2632,9.84795c-3.18737,3.35574 -6.32472,6.63431 -9.19562,10.23095c-0.02364,0.1101 -0.11822,0.21926 -0.25372,0.32183c-0.68294,0.86575 -1.35588,1.74468 -2.00427,2.65466c-5.14526,7.22245 -10.13592,14.2774 -18.05114,18.42267c-0.64566,0.33783 -1.34952,0.18915 -1.65507,-0.14868c-4.59872,2.4307 -10.38964,4.756 -11.00892,10.58572c0.01455,-0.00282 0.0291,-0.00376 0.04365,-0.00659c1.19583,-0.85634 2.48533,-3.03955 3.25921,-3.7792c1.3577,-1.29675 2.80907,-2.04017 4.61236,-2.42317c1.8233,-0.38677 0.73751,1.06337 -0.41195,1.3071c-2.18614,0.46393 -3.52838,3.31621 -5.07342,4.77576c-0.37466,0.35289 -0.77024,0.6559 -1.1831,0.91657c0.05547,0.21267 0.11185,0.367 0.17369,0.4884c0.38376,-0.17315 0.83299,-0.24937 1.19583,-0.19103c0.87664,-0.6559 1.70235,-1.37768 2.50624,-2.1258c1.33224,-1.23934 2.62537,-2.70266 4.20951,-3.60511c0.78661,-0.44793 3.15645,-0.20138 1.60232,0.68413c-1.08762,0.6192 -4.52506,4.29207 -7.5351,6.12615c0.1846,0.64743 0.49652,1.13301 1.2604,0.75753c0.98667,-0.48746 1.88514,-1.15183 2.75269,-1.83408c1.4059,-1.10854 2.73541,-2.36012 4.2959,-3.2334c1.22948,-0.68884 2.6863,0.44041 1.0958,1.33063c-1.19674,0.67096 -3.88941,3.16753 -6.45749,4.6459c1.26767,1.00032 2.93274,-1.07843 4.27498,-1.54706c1.14672,-0.40088 2.44623,-0.77353 3.67388,-0.70766c2.66538,0.14304 3.69844,1.80114 4.97793,4.00505c2.77178,-0.30866 4.47596,-2.60385 5.9346,-4.9715c0.65475,-1.06431 1.26131,-2.13992 1.89423,-3.05649c0.55654,-0.80647 1.13672,-1.51977 1.73964,-2.1992c1.00577,-1.13301 2.0943,-2.13803 3.39289,-3.09225c0.84754,-0.62297 1.69599,-1.24687 2.54353,-1.87454c0.11276,-0.48181 0.67749,-0.83658 1.26131,-0.94198c5.23801,-3.91001 10.39691,-8.00351 14.86559,-12.82162c5.77091,-6.22213 10.73065,-13.38154 12.84314,-21.83863c1.8424,-7.36173 2.20524,-14.59077 1.75146,-22.15106zm-65.46698,-61.07797c3.37197,0.91657 7.21591,1.09254 9.25655,-2.31777c0.89937,-1.50284 1.58414,-3.25881 1.50866,-5.06183c-0.10003,-2.41282 -1.34861,-3.56088 -3.01822,-4.21302c-1.96153,4.08222 -4.13858,8.80245 -7.74699,11.59263zm5.10979,-11.70179c0.08548,-0.1788 0.16914,-0.35383 0.2519,-0.52886c-0.40922,-0.07528 -0.82208,-0.1468 -1.23403,-0.2155c0.43377,0.19009 0.75115,0.44887 0.98213,0.74436zm272.63042,-25.92461c0.47106,-0.09034 1.26767,-0.26161 1.55049,-0.72177c0.26827,-0.43664 0.572,-0.82905 0.99304,-1.11795c0.03547,-0.02447 0.05638,-0.04141 0.07457,-0.0574c0.01819,0 0.03092,0 0.0582,-0.00282c0.24189,-0.02635 0.49652,0.01976 0.73478,0.05646c0.60928,0.09034 1.28859,-0.09975 1.83876,-0.36042c0.16914,-0.07999 0.9403,-0.57403 0.33465,-0.66531c-2.4344,-0.36324 -5.25074,0.40276 -6.62936,2.64337c-0.24553,0.40088 0.96303,0.24185 1.04487,0.22585zm73.70503,336.684c-13.96895,2.30083 -28.04065,-4.02669 -39.5279,-12.16478c4.51415,10.03898 10.89889,22.54253 3.58749,31.9783c-0.34102,1.74374 0.32192,4.45204 0.42104,6.04428c0.2428,3.90812 0.48379,7.82566 0.50289,11.74319c0.0191,4.25254 0.94393,10.26671 -4.14949,11.22751c-2.93092,0.55239 -4.73604,-0.92316 -4.82243,-3.63334c-0.16642,-5.23499 -0.33465,-10.48032 -0.74205,-15.70213c-0.10185,-1.31557 -0.0291,-3.13177 -0.39103,-4.56779c-0.07912,0.04611 -0.14641,0.08846 -0.23644,0.13739c-0.33556,0.31431 -0.67112,0.62673 -1.00668,0.94104c-0.95394,0.9288 -1.80693,1.94606 -2.5599,3.0499c-1.41317,2.24908 -2.91183,4.61202 -2.99913,7.39184c-0.18915,6.03298 -0.95303,10.03804 -6.88944,12.06879c-5.16163,1.76727 -10.90343,2.23684 -16.30332,2.37423c-4.8197,0.12328 -10.57697,0.42253 -15.09294,-1.66375c-0.07912,-0.04705 -0.09548,-0.1101 -0.05002,-0.19197c1.48319,-5.67163 5.66815,-9.2805 9.91312,-12.84326c-0.0582,-0.02447 -0.11185,-0.05646 -0.15187,-0.09787c-12.22567,-12.72375 -5.62996,-27.90267 0.02364,-42.12644c0.18642,-4.19326 1.31769,-8.18513 1.78329,-12.35957c0.55654,-5.00443 0.20643,-10.01075 -0.77024,-14.93895c-1.99699,-10.08697 -5.71453,-19.71848 -7.63968,-29.8158c-0.01819,-0.09316 -0.03001,-0.18538 -0.04729,-0.27761c-0.3683,-0.07811 -0.63656,-0.29549 -0.62656,-0.69731c0.0191,-0.78482 0.08093,-1.56871 0.16369,-2.35071c-1.15855,-9.40001 0.10731,-18.76427 -0.63111,-28.26309c-1.33315,-17.13345 -7.56238,-33.68628 -7.72425,-50.89313c0,-0.01976 0.00728,-0.03764 0.00818,-0.0574c-0.01364,-0.06305 -0.02364,-0.12892 -0.02364,-0.20138c0.00818,-3.87142 0.10367,-7.70427 0.35739,-11.50793c0.22189,-3.33409 0.56836,-6.64748 1.08762,-9.94393c0.53108,-3.37079 1.24221,-6.72559 2.19251,-10.07191c0.17824,-0.62861 1.04215,-1.00691 1.746,-1.02761c0.60292,-0.01788 1.08762,0.22679 0.92211,0.81211c-2.94002,10.3514 -3.61477,20.78561 -3.63751,31.52472c0,0.01788 -0.00546,0.032 -0.00728,0.04987c0.20552,14.74228 5.22164,28.86347 6.99766,43.41377c0.60201,4.93668 1.01668,9.90911 1.03214,14.88908c0.01273,4.17067 -0.46651,8.37993 -0.42195,12.54966c0.00091,0.07152 0.00455,0.14116 0.00546,0.21267c0.00455,-0.01129 0.00728,-0.02258 0.01182,-0.03388c1.21584,-3.76226 2.79361,-7.43042 4.26407,-10.92826c3.15372,-7.50194 6.83124,-14.84955 9.40751,-22.59523c0.02728,-0.08187 0.07366,-0.15715 0.12913,-0.22867c0.83117,-2.57185 1.71963,-5.12488 2.65811,-7.66004c0.47197,-1.27416 0.95394,-2.54644 1.45137,-3.8112c4.05673,-10.32693 8.93281,-20.32545 14.30269,-29.95131c-5.60176,1.30616 -11.80372,1.75974 -16.49792,-1.66469c-4.20041,-3.06496 -5.34896,-7.63839 -4.13585,-12.53178c-6.13375,-0.55898 -7.72425,-6.58161 -11.31447,-10.80498c-0.62565,-0.73683 -1.31314,-1.41344 -2.0361,-2.0524l-1.67871,-1.37015c-0.32919,-0.25408 -0.66112,-0.50534 -0.99668,-0.75189c-1.50957,-1.10478 -3.06642,-2.15027 -4.52324,-3.27292c-3.43927,-2.64808 -6.85852,-5.36297 -9.9986,-8.39028c-12.3157,-11.86647 -19.25061,-26.68497 -18.30213,-44.36422c0.41104,-7.66474 0.34102,-15.31819 0.65384,-22.98576c0.25644,-6.31718 0.25281,-14.77521 4.23679,-20.02996c7.39233,-9.75196 20.61922,-14.01486 31.50629,-18.1253c0.08548,-0.37171 0.38739,-0.73589 0.95757,-0.91939c0.53653,-0.17221 1.78602,-0.76977 2.54262,-1.36356c1.53321,-1.20264 2.31073,-2.73371 2.07065,-4.61955c-0.58655,0.0574 -1.17128,0.05552 -1.69144,0.01788c-7.01221,-0.50157 -6.57389,-10.28082 -2.69721,-14.84955c-1.11762,0.02447 -2.14158,-0.29737 -2.75541,-1.3071c-0.78297,-1.28828 -0.75751,-2.98685 -0.45469,-4.5405c-0.26008,-0.00847 -0.50743,-0.08469 -0.69931,-0.25879c-5.71271,-5.19734 -9.32657,-12.63059 -6.7494,-20.50518c2.2689,-6.93638 8.04071,-12.57977 14.56186,-15.25796c5.10161,-2.09663 10.96709,-2.77982 16.14599,-0.90151c0.23189,-0.01317 0.44469,-0.03764 0.62656,-0.08187c0.77752,-0.18821 1.86331,0.65026 3.01186,1.93007c0.13641,0.09222 0.27645,0.17409 0.41104,0.27008c8.72911,6.25695 10.79067,18.06225 11.17716,28.3139c0.01637,0.43852 -0.27645,0.76694 -0.67021,0.95892c0.06548,0.74342 0.13186,1.48684 0.1646,2.22837c0.20097,4.53485 0.15823,11.57475 -4.74422,13.70149c-3.80302,1.6487 -10.85706,0.74906 -9.94768,6.76135c0.01637,0.10728 0.04456,0.20326 0.06366,0.30772c0.23007,0.12139 0.24371,0.33124 0.11549,0.56274c1.10853,4.86234 4.89609,6.83757 9.21199,6.5562c0.6593,-0.04329 1.32769,-0.13457 2.00336,-0.28043c-0.00091,-0.02823 0.00273,-0.0574 0.00455,-0.08563c0.02819,-0.40653 0.33829,-0.80365 1.01305,-0.93727c3.88759,-0.77165 8.09528,-2.93509 12.11563,-2.60291c0.02273,0.00188 0.04547,0.00847 0.0682,0.01035c0.40194,-0.02353 0.78934,0.02635 1.0185,0.15527c3.64933,0.66814 6.95492,3.07531 9.21654,6.07251c6.50114,8.61519 9.3193,19.64696 12.57942,29.85626c4.13039,12.93831 7.95978,25.50585 4.50233,39.08312c-3.2583,12.79715 -10.31689,25.30917 -16.95625,36.52256c-0.09458,0.15904 -0.23826,0.28984 -0.40649,0.39618c-1.33588,4.46898 -1.42045,9.73032 -2.2689,14.58701c0.28918,0.02917 0.55472,0.12986 0.74205,0.33219c3.55294,3.83566 7.30321,9.66068 3.26285,14.62935c-0.77115,0.94762 -1.64143,1.79832 -2.57718,2.5775c0.00637,0.02164 0.01728,0.04046 0.0191,0.06399c0.69476,9.98346 1.9397,19.91609 3.79483,29.71228c1.04215,5.5013 2.27526,10.95931 3.7239,16.35804c2.31709,8.63683 5.16708,17.12498 8.62181,25.39857c5.04068,12.06973 11.05439,23.68965 17.94292,34.7393c5.35532,8.58884 11.22354,17.40729 13.18142,27.62977c2.38712,12.46685 -3.01368,23.23607 -15.68312,25.32047zm-41.41123,-272.87515c0.18551,0.016 0.32192,0.07246 0.36648,0.18633c3.01822,7.58381 6.02372,15.19397 8.56179,22.96693c1.57231,4.81152 4.86244,12.12996 3.6948,17.36589c-0.63838,2.86828 -1.64143,5.59917 -2.77542,8.27924c-0.01819,0.04235 -0.03456,0.08658 -0.05365,0.12892c-0.74751,1.7588 -1.54867,3.49689 -2.34528,5.23499c-1.77601,3.87519 -3.11189,7.91788 -4.82243,11.80624c-2.94093,6.687 -7.90067,10.96213 -13.61429,15.08858c0.05274,0.21079 -0.06729,0.46864 -0.47924,0.75659c-0.57655,0.40276 -6.13193,4.89527 -2.51716,4.5038c2.30072,-0.24843 4.24315,-1.52636 5.66451,-3.37832c0.38103,-0.49593 2.74086,-0.97397 2.40712,0.18162c-0.68112,2.36388 -1.85058,4.58379 -2.60264,6.93073c-0.47197,1.47178 -1.00304,3.04708 -1.06943,4.61108c-0.07821,1.81338 0.48561,1.48307 1.76328,0.64743c0.53653,-2.45799 1.40953,-4.87645 2.29436,-7.18387c0.35284,-0.92033 2.99094,-1.24876 2.63719,-0.32936c-0.78752,2.05428 -1.49684,4.16032 -2.04519,6.29553c-0.32919,1.27981 -0.68931,2.63114 -0.70386,3.96647c-0.00273,0.2682 -0.01,0.73683 0.12458,1.04361c0.18824,-0.12704 0.37466,-0.2569 0.54926,-0.40465c0.20006,-0.16186 0.43286,-0.28702 0.67567,-0.38394c0.69931,-2.16062 1.68053,-4.18197 2.19615,-5.02137c0.43014,-0.69825 3.0646,-1.0182 2.43895,0c-1.02851,1.67316 -1.79875,3.64181 -2.28617,5.55588c-0.281,1.10007 -0.63293,2.38647 -0.43014,3.53171c0.06457,0.36324 0.1264,0.86199 0.3883,1.14336c0.09458,0.10069 0.16187,0.16468 0.21643,0.21456c0.35193,-0.40841 0.67385,-0.86575 0.95939,-1.37862c0.50925,-2.40152 1.58232,-4.78046 1.95334,-7.31279c0.02637,-0.1835 0.16914,-0.34912 0.36921,-0.49028c0.42923,-0.74906 2.69994,-1.11325 2.5599,-0.19385c-0.301,1.97712 -0.95394,5.30274 -2.28163,7.80213c-0.23644,1.25534 -0.29373,2.51821 0.00728,3.80461c5.72453,-5.80525 3.99944,-17.08357 6.31563,-24.41143c0.04092,-0.12798 0.13459,-0.24373 0.26008,-0.34724c0.00091,-0.12892 0.04456,-0.27572 0.14277,-0.44229c5.8673,-9.90911 11.83191,-20.71598 15.49579,-31.73739c4.23952,-12.75198 2.70176,-24.44813 -1.29768,-37.06648c-3.05005,-9.62586 -5.60995,-19.88598 -10.30688,-28.82489c-2.27799,-4.33441 -5.39079,-9.64939 -10.26596,-11.18045c-0.56836,-0.17786 -1.14582,-0.28325 -1.72782,-0.33501c-6.13921,7.38902 -1.02578,19.47475 -0.4174,28.37601zm8.70547,46.16536c0.82208,-2.07593 1.43773,-4.2149 1.37589,-6.21555c-0.19733,-6.30494 -2.59536,-12.69364 -4.62964,-18.56288c-0.30555,-0.88081 -0.62474,-1.75503 -0.93757,-2.63302c-0.65566,9.52893 0.43741,18.37279 4.19132,27.41145zm-47.01845,-101.67804c0.09094,0.22773 0.1746,0.46864 0.25463,0.71801c0.09458,-0.01976 0.17642,-0.03105 0.23371,-0.02823c-0.01819,-0.00094 -0.00637,-0.31525 0.02819,-0.84599c-0.13368,0.07434 -0.30737,0.13645 -0.51653,0.15621zm-5.09979,-2.06463c0.19461,-0.09881 0.39103,-0.19479 0.60474,-0.26725c0.25099,-0.08563 0.48561,-0.14304 0.71204,-0.18821c-0.43286,-0.05552 -0.87846,0.12422 -1.31678,0.45546zm0.64293,11.02236c0.25281,-0.19291 0.51198,-0.37171 0.78297,-0.52039c0.31646,-0.17315 0.64566,-0.22585 0.93666,-0.19574c0.03274,-0.00094 0.06729,-0.00659 0.09912,-0.00471c0.17824,0.00847 0.33738,0.05834 0.48743,0.1261c0.34556,-0.0894 0.70113,-0.13363 1.02396,-0.07246c0.58655,0.1101 -0.15187,0.55898 -0.33738,0.64649c0.43014,0.55427 0.70659,1.3231 0.94393,1.88866c0.95666,2.27825 1.75965,4.67225 2.25889,7.10482c0.20461,0.99468 0.55199,2.42317 0.5138,3.69545c3.13462,0 6.27016,0 9.40478,0c-0.10549,-1.31557 0.15368,-2.59632 1.00122,-3.62487c1.61233,-1.95924 3.89941,-2.47022 6.2747,-2.82217c5.70089,-0.84317 7.46963,-4.54332 7.58057,-9.89782c0.17642,-8.52391 -1.93152,-17.12969 -4.84334,-25.09368c-0.6011,0.57591 -1.24039,1.06149 -1.9297,1.46237c-0.14186,0.18444 -0.28554,0.37171 -0.43559,0.57497c-2.27162,3.10354 -5.75818,1.53295 -8.49267,0.56839c-0.36011,-0.04987 -0.71841,-0.09599 -1.07307,-0.1308c-4.38775,-0.43005 -5.30985,1.89054 -5.69907,5.77796c-0.45196,4.52639 1.25676,13.55751 -5.2371,13.31472c-0.54835,0.11857 -1.05215,0.11951 -1.12672,-0.12139c-0.28645,-0.93445 -0.63656,-2.08251 -1.36043,-2.76853c-0.09639,-0.09222 -0.20643,-0.19009 -0.32192,-0.27384c-0.96212,1.00597 -1.55685,2.45893 -1.93152,3.7792c-0.54381,1.92254 -0.76933,6.32941 1.48047,6.58725zm4.00217,12.73693c-0.01,-0.16656 -0.02001,-0.33595 -0.04183,-0.53827c-0.1646,-1.58376 -0.50107,-3.144 -0.94121,-4.66848c-0.44196,-1.53107 -0.92847,-3.05649 -1.54412,-4.52356c-0.1846,-0.44041 -0.37103,-0.88928 -0.59291,-1.31369c-2.6863,3.20423 -3.66752,12.19019 1.07397,12.5299c0.36375,0.02635 0.65384,0.03482 0.90938,0.02917c-0.63293,-0.30584 0.28282,-1.25064 1.13672,-1.51507zm-25.04243,19.85869c6.80214,4.01823 8.96191,13.01171 8.77004,20.78185c0.02546,0.02823 0.05002,0.05834 0.07002,0.09034c0.05093,0.03764 0.08912,0.08187 0.0973,0.14021c1.5905,10.4775 7.89703,19.35053 11.81827,28.94816c4.67966,11.45335 2.59809,21.54973 -0.36102,33.11978c5.499,7.54899 10.47694,15.66449 18.76773,20.18241c0.46742,-0.15057 0.95303,-0.2042 1.19492,-0.06587c0.20825,0.11951 0.4265,0.2362 0.64202,0.35383c1.23221,-1.95736 2.92365,-2.63773 4.81788,-2.80711c0.05002,-0.00565 0.0973,-0.01506 0.14732,-0.01882c-0.01091,-0.02729 -0.01637,-0.0574 -0.02546,-0.08658c-0.64475,-1.98841 3.45745,-5.0289 4.71148,-5.90406c0.24917,-0.17409 0.58473,-0.25502 0.91665,-0.26537c5.86367,-4.36829 10.68336,-9.11488 13.18415,-16.42109c1.44227,-4.21396 3.40107,-8.17949 5.20709,-12.23253c0.32919,-0.73871 0.70204,-1.52448 1.08307,-2.33942c-0.00546,-0.00753 -0.01455,-0.01317 -0.0191,-0.02164c-2.56081,-5.44954 -4.12494,-10.80027 -4.907,-16.23664c-0.40922,-2.84758 -0.60474,-5.72056 -0.60837,-8.6453c-0.00364,-3.6531 0.28282,-7.38431 0.81389,-11.25291c0.00273,-0.01788 0.01273,-0.03294 0.01728,-0.04987c-1.37589,-3.68133 -2.79634,-7.34385 -4.24497,-10.99601c-0.47197,0.0207 -0.85481,-0.12233 -0.86391,-0.48652c-0.22371,-9.38872 -5.87822,-21.90921 0.3301,-30.10281c-2.95093,0.42535 -5.96006,1.7268 -8.72729,2.27637c-0.43104,0.08563 -0.78206,0.01223 -1.04215,-0.14586c-3.39925,0.95327 -7.37141,1.40967 -10.33598,-0.40559c-0.49106,-0.30113 -0.95394,-0.66625 -1.38225,-1.10101c-0.15005,-0.15245 -0.30464,-0.29831 -0.44559,-0.46958c-0.86391,-1.04173 -1.70054,-2.5248 -2.15159,-4.08316c-3.37379,0 -6.74758,0 -10.12228,0c-0.00909,0.01694 -0.01364,0.0367 -0.02273,0.05364c-0.14186,0.23526 -0.32192,0.42911 -0.51471,0.60509c0.81935,4.43699 -2.86363,7.69203 -6.70029,8.92008c-0.14095,0.04517 -0.27009,0.06493 -0.39376,0.07622c-5.17527,1.96488 -10.37418,3.91753 -15.35575,6.3774c-1.35133,0.66719 -2.84362,1.39932 -4.36501,2.21238zm21.26306,64.55886c-0.09639,-5.34509 -1.50593,-10.26294 -3.66661,-15.08952c-2.8609,-6.38681 -6.58116,-12.66164 -9.04467,-19.32418c-0.44469,4.48874 -1.18947,8.95961 -1.92242,13.37119c-1.00122,6.01981 -2.67266,12.28994 -2.83908,18.41891c-0.09185,3.3755 3.87304,7.09259 5.96824,9.3539c2.89546,3.12424 6.08101,6.06122 8.79459,9.37649c1.39771,-5.25851 2.80816,-10.69206 2.70994,-16.10678zm15.58946,52.36773c1.39317,-0.07528 3.02004,0.07058 4.25134,0.814c0.83117,0.50063 2.47987,2.1578 3.35378,1.70233c-2.72177,-1.36168 -5.67633,-4.08692 -7.10678,-4.8868c-1.18583,-0.66343 1.20492,-1.91313 2.06883,-1.43038c1.57777,0.88363 2.89909,2.24437 4.345,3.33127c0.7566,0.56933 1.5323,1.15842 2.37984,1.57718c0.87027,0.42911 0.95939,0.6145 1.10853,-0.05364c-0.24189,-0.09787 -0.47651,-0.21173 -0.70113,-0.3463c-2.65083,-1.596 -4.44049,-4.47839 -7.10315,-5.99346c-1.01214,-0.57686 1.43045,-1.63646 2.11703,-1.24593c1.68326,0.95892 3.02368,2.53892 4.45595,3.83755c0.80207,0.72648 1.61505,1.47555 2.51898,2.06934c0.08457,0.05552 0.17733,0.10822 0.26645,0.16374c0.15278,-0.02258 0.30191,-0.03011 0.44196,-0.02353c-2.61992,-1.4859 -3.91487,-5.32627 -7.14316,-6.01134c-1.43591,-0.30395 0.93029,-1.4859 1.65143,-1.33251c1.88332,0.39994 3.29104,1.43884 4.55598,2.92662c0.56836,0.67002 1.25585,1.70328 2.05337,2.49751c-1.41408,-5.13712 -7.0013,-7.31844 -11.42451,-9.72091c-0.50743,0.21644 -1.09671,0.31054 -1.44864,0.1261c-8.81459,-4.61672 -13.49516,-12.98442 -19.44612,-20.65951c-0.2519,-0.03858 -0.40922,-0.13645 -0.36375,-0.31054c0.01,-0.03952 0.02001,-0.07905 0.03092,-0.11763c-0.12095,-0.15433 -0.23917,-0.3096 -0.36011,-0.46299c-3.40835,-4.28454 -7.47053,-7.90471 -11.01256,-12.0575c-1.75055,-2.05146 -4.96247,-5.1183 -5.20255,-8.01575c-0.48561,-5.88148 1.68599,-12.58636 2.64083,-18.33045c1.19856,-7.2121 2.48624,-14.5663 2.50988,-21.91391c-0.1646,-0.14116 -0.26372,-0.3463 -0.24644,-0.62861c0.46105,-7.39937 -1.2804,-17.49951 -8.41083,-21.09898c-3.99489,2.37894 -7.78973,5.40814 -9.35295,9.47153c-4.59781,11.95399 -2.64265,26.34337 -3.31923,38.95044c-0.9212,17.15133 4.82607,32.24367 16.99172,43.96616c5.64178,5.43637 12.07471,9.59575 18.02841,14.59077c4.01581,3.36891 6.17922,11.60298 11.7537,12.5139c1.21948,-2.02982 2.57445,-3.76226 5.11798,-3.89777zm22.52073,15.35677c4.70694,-1.6374 11.54182,-3.65122 14.60187,-8.1155c2.77997,-4.05493 0.38739,-8.10891 -2.3762,-11.33761c-0.96303,3.66534 -2.64174,6.9345 -6.03463,9.21651c-0.45742,0.30678 -1.80602,0.71236 -2.12431,0.00188c-0.44559,-0.99656 -0.64293,-1.96771 -0.6884,-2.92474c-0.42195,0.17974 -0.87027,0.29643 -1.35861,0.30866c-2.7054,0.06493 -2.99003,-2.35918 -2.42349,-5.09665c-1.88969,0.77165 -3.72936,0.48746 -3.39561,-2.5568c0.01728,-0.15151 0.04365,-0.30207 0.06275,-0.45358c-2.31527,0.8187 -4.56962,0.44605 -3.98216,-3.16094c0.43559,-2.67066 1.49047,-5.08254 2.44804,-7.54052c-0.20006,0.12139 -0.40285,0.23714 -0.60928,0.34724c1.16127,0.09787 -0.6593,1.24311 -1.40681,1.27605c-0.8148,0.0367 -1.61596,-0.00847 -2.41622,-0.08281c-0.71477,0.04799 -1.41499,-0.02164 -2.07702,-0.23432c-0.01273,-0.00188 -0.02546,-0.00282 -0.0391,-0.00471c-2.23707,-0.26631 -3.50747,0 -4.52597,2.29331c-0.04547,0.10163 -0.13186,0.19479 -0.24371,0.27761c4.8588,2.51633 10.33689,5.23499 10.55878,11.48911c0.02455,0.69543 -1.10126,0.99091 -1.69781,1.0389c-0.4656,0.70766 -1.16491,1.10948 -1.95152,1.25158c-0.67749,1.75221 -1.90605,2.16532 -3.35287,1.86325c-1.27949,1.15465 -3.08643,1.5226 -4.6933,0.56274c-1.37862,-0.82341 -2.64265,-2.02135 -4.26862,-2.25566c-2.00427,-0.29078 -2.58445,1.25252 -3.47564,2.81652c0.05456,0.16656 0.06093,0.36324 -0.01091,0.59944c-1.61142,5.26133 0.20734,10.80686 5.61813,12.63059c6.6139,2.22837 13.52517,-0.00376 19.86262,-2.20955zm-27.00487,92.48788c2.33346,13.43988 6.42293,26.2982 9.84674,39.44919c0.95121,3.65499 1.81057,7.38243 2.38348,11.14093c0.21279,0.08375 0.32647,0.23996 0.25735,0.47899c-0.04001,0.13739 -0.08275,0.2936 -0.12822,0.45358c0.83208,5.96993 0.9112,12.00857 -0.54926,17.95027c-1.09034,4.43605 -2.74632,8.70553 -4.94338,12.68141c-1.19947,2.17191 -2.48988,4.26948 -3.86213,6.32847c-0.52835,0.79329 -1.07761,1.58188 -1.6387,2.34977c-0.87209,1.19229 3.14554,0.73589 3.25102,0.71331c9.222,-2.00347 15.15114,-13.52458 18.48218,-21.68336c3.73208,-9.14311 6.11829,-18.66546 5.7409,-28.63574c-0.46196,-12.23536 -2.67175,-23.70094 -6.0319,-35.39332c-2.89909,-10.09073 -11.74006,-19.62061 -10.85342,-30.61097c0.58746,-7.2808 3.9858,-14.57477 6.7885,-21.16391c3.90669,-9.18357 8.19258,-18.18647 12.11109,-27.36252c2.9873,-6.99472 6.19559,-14.25294 7.56238,-21.82922c-4.24043,2.60385 -9.30293,4.15938 -13.75797,5.53518c-0.81298,0.25126 -1.65961,0.50534 -2.53171,0.75189c-7.42507,13.27332 -13.97622,27.29382 -18.62496,41.87612c0.00273,0.05929 -0.00455,0.12516 -0.02819,0.19762c-0.15732,0.47428 -0.3301,0.94198 -0.49652,1.4125c-2.3271,7.54617 -4.38866,15.39347 -4.86335,23.333c-0.43741,7.37208 0.62929,14.78086 1.88605,22.02684zm-2.90637,39.27698c-0.16914,4.63178 -1.37316,9.27297 -1.89969,13.91699c0.41468,0.00376 0.70295,0.1101 0.61292,0.34348c-0.26827,0.68602 -0.54199,1.3758 -0.81753,2.06746c-0.12186,2.38365 0.01091,4.76729 0.63838,7.15282c0.73205,2.77888 2.15341,6.1045 4.98521,7.19705c4.37956,1.69104 8.0107,-13.9311 9.09923,-18.01991c-2.04519,-13.65632 -7.11679,-26.67744 -10.13592,-40.11168c-2.0652,-9.18922 -4.1895,-18.97788 -4.2286,-28.45035c-0.0191,-4.4878 0.45742,-8.95867 1.25312,-13.37119c-0.74296,1.68069 -1.48229,3.36232 -2.19251,5.05337c-2.66266,6.33223 -5.75636,13.17545 -6.51023,20.17676c0.99486,6.29836 2.80361,12.44144 4.55325,18.57512c2.33892,8.19643 4.95611,16.82008 4.64237,25.47009zm-2.71813,57.40322c1.50502,-1.28451 2.96093,-2.60761 4.26134,-4.04834c-0.12095,-0.01976 -0.24008,-0.03011 -0.36102,-0.0527c-0.30191,-0.05552 -0.26645,-0.29454 -0.1264,-0.48746c7.31776,-10.00698 12.19384,-20.99358 12.11654,-33.25623c-2.49533,7.70709 -6.81033,16.88031 -13.40604,11.42136c-2.60809,-2.15968 -3.74209,-5.41002 -4.21042,-8.74505c-4.6451,12.03021 -8.07163,24.48577 1.726,35.16841zm36.4051,-45.89905c-0.68476,5.21899 -1.91515,10.37587 -3.80847,15.40665c-4.30954,11.45994 -12.76129,27.38604 -26.41923,26.65109c-5.05887,5.12677 -13.15687,9.28521 -15.0602,16.566c-0.91029,3.47995 17.13085,2.40058 19.19241,2.18038c3.70753,-0.39335 10.56878,-0.50722 12.52031,-4.54615c1.63233,-3.37832 0.26554,-6.9552 1.50866,-10.33823c1.41226,-3.84225 5.92277,-11.73096 10.72065,-11.74696c2.19342,-0.00753 2.04064,20.58611 2.11339,23.23042c0.01455,0.51192 0.19188,0.54862 0.66294,0.82058c2.08247,1.19982 2.58354,0.56368 2.78542,-2.01664c0.26827,-3.40561 0.24644,-6.82816 0.11731,-10.24036c-0.13913,-3.64558 -0.37194,-7.28456 -0.59837,-10.92543c-0.06638,-1.08972 -0.44559,-2.72054 -0.10913,-3.81402c-0.04638,-0.18162 0.01,-0.40935 0.22825,-0.68602c6.85216,-8.65471 0.50561,-21.03028 -3.85394,-30.54134zm50.7087,-25.88132c-4.88245,-10.0098 -11.50908,-19.02117 -16.75073,-28.84182c-5.05796,-9.47718 -9.59757,-19.26866 -13.25508,-29.41868c-6.43475,-17.8524 -10.33235,-36.38705 -12.19748,-55.27742c-1.59141,5.10324 -3.74573,10.06815 -5.82092,14.88437c-3.79665,8.81375 -7.90704,17.47975 -11.66367,26.31232c-2.94093,6.91379 -6.91491,14.86179 -7.25956,22.56511c-0.47469,10.60172 7.82337,20.26145 10.90525,29.97671c4.11493,12.97313 6.68665,26.79225 5.84912,40.34599c0.07002,0.05176 0.12822,0.11575 0.17824,0.18821c5.33077,4.20079 12.06471,8.69706 19.25152,11.79401c2.12976,0.91751 4.29863,1.70704 6.48204,2.33377c6.29835,1.80773 12.72128,2.22932 18.68225,0.19479c15.07202,-5.14276 11.0744,-23.83081 5.59904,-35.05737zm-76.80965,-296.95062c-0.02637,-0.68978 -0.60746,-0.98997 -1.2313,-0.94668c-0.51835,0.03576 -1.47137,0.44699 -1.44409,1.13207c0.01273,0.3256 0.04274,0.62861 0.13368,0.93915c0.05911,0.20138 0.16096,0.41688 0.17005,0.63049c0.02637,0.68978 0.60746,0.98997 1.2313,0.94668c0.51835,-0.03576 1.47137,-0.44699 1.44409,-1.13207c-0.01273,-0.3256 -0.04274,-0.62861 -0.13368,-0.93915c-0.06002,-0.20138 -0.16096,-0.41782 -0.17005,-0.63049zm-268.42182,-4.50004c-0.43559,0.06493 -1.31041,0.27196 -1.55049,0.72177c-0.2228,0.41782 0.94666,0.23996 1.04487,0.22491c1.31587,-0.19668 2.50624,0.68131 3.17918,1.77479c0.39831,0.64743 2.8218,-0.42817 2.63447,-0.73119c-1.2222,-1.98841 -3.18646,-2.30648 -5.30804,-1.99029zm-12.27205,0.66155c1.2122,0 2.42531,0 3.63751,0c0.60383,0 1.38407,-0.19479 1.73418,-0.76318c0.33374,-0.5411 -0.28009,-0.86952 -0.73205,-0.86952c-1.2122,0 -2.42531,0 -3.63751,0c-0.60383,0 -1.38407,0.19479 -1.73418,0.76318c-0.33374,0.5411 0.28009,0.86952 0.73205,0.86952zm289.46208,6.62396c-0.8921,-0.84787 -3.16463,0.52039 -2.02336,1.60635c0.8148,0.77353 1.67053,1.65246 2.03064,2.761c0.33283,1.02949 -0.53108,1.4859 -1.30768,1.83032c-0.49925,0.22208 -1.00032,0.89681 -0.61292,1.44355c0.40831,0.57686 1.24858,0.4677 1.79602,0.22491c1.36134,-0.60603 2.70722,-1.58094 2.8709,-3.22399c0.18642,-1.86325 -1.57686,-3.5223 -2.75359,-4.64213zm-106.56356,217.85557c-1.3768,13.05782 -2.4344,26.11847 -1.09125,39.21299c0.23371,2.27919 0.48925,4.5565 0.73932,6.83381c6.31563,10.13308 18.99326,10.87932 29.58841,12.40004c0.36466,0.0527 0.67658,0.28608 0.81753,0.58627c0.02546,0.05458 0.0482,0.10916 0.06093,0.16845c0.00273,0.01035 0.00455,0.01976 0.00637,0.03105c0.01273,0.06587 0.01637,0.13457 0.01091,0.20326c-0.00273,0.02447 -0.01,0.05082 -0.01546,0.07622c-0.01,0.05364 -0.02183,0.10634 -0.04456,0.15998c-0.03819,0.08846 -0.08821,0.17786 -0.1646,0.26914c-3.7721,4.53297 -8.07709,8.45521 -12.34389,12.47344c-4.88518,4.59979 -9.00829,9.81501 -13.11777,15.14128c0.42286,3.8686 0.81844,7.74097 1.11944,11.61992c0.15641,2.01852 0.56745,4.4351 0.42741,6.62207c0.5329,0.17691 0.81207,0.58062 0.26008,1.15465c-0.15459,0.16092 -0.32647,0.30113 -0.49015,0.45076c-0.01728,0.0687 -0.02364,0.14116 -0.04183,0.20985c-0.08912,0.33595 -0.54926,0.60132 -1.06215,0.74812c1.6487,7.90188 3.59932,20.64728 -5.91186,23.12032c-9.48026,2.46552 -12.48029,-12.62306 -13.83345,-19.19714c-0.74569,0.07434 -1.49138,0.14774 -2.23616,0.21926c0.39194,9.09794 1.63415,18.49795 0.00637,27.5159c-1.2413,6.8818 -4.54689,15.33325 -11.19625,18.48948c-6.87035,3.26069 -11.55273,-5.28768 -10.87706,-11.50417c0.592,-5.44578 2.05883,-10.66006 3.99489,-15.75201c2.21706,-5.83254 4.76605,-11.10988 5.09615,-17.46375c0.02546,-0.49122 0.44287,-0.84693 0.93939,-1.01632c-1.87059,-0.18162 -3.73481,-0.50534 -5.59176,-1.0389c-7.51782,-2.16062 -10.5215,-6.75005 -8.80732,-14.76298c0.24644,-1.14901 0.4947,-2.29048 0.74296,-3.43102c0.44014,-2.01946 0.87664,-4.0314 1.30678,-6.03769c-0.24189,0.2889 -0.58109,0.48369 -0.94666,0.55709c-0.37194,0.07622 -0.77024,0.02917 -1.13217,-0.23149c-0.35375,-0.25502 -0.33283,-0.54486 -0.12277,-0.80365c-0.29555,-0.02541 -0.31555,-0.95515 -0.49925,-1.52542c-0.39831,-1.23652 -0.82208,-2.46457 -1.25494,-3.68886c-1.47319,-4.17444 -2.98912,-8.331 -4.46868,-12.50167c-3.89032,-10.97154 -7.68879,-22.01084 -10.73793,-33.2694c-2.7927,-10.31282 -4.78332,-20.26992 -4.11584,-31.00433c1.0958,-17.61902 4.0049,-35.03573 4.08947,-52.72721c0,-0.01694 0.00637,-0.03105 0.00818,-0.04799c0.11458,-7.88118 1.28677,-16.24605 5.38624,-23.05163c4.28044,-7.10765 10.54605,-13.10017 14.01896,-20.70751c3.9567,-8.66318 5.1107,-16.60271 0.38194,-25.17555c-0.95666,-1.73527 -1.77874,-3.4329 -2.46168,-5.13429c-0.50561,17.81005 -2.56172,43.57187 -16.15691,37.64616c-5.47991,-2.38835 -8.52541,-8.10609 -10.86979,-13.46811c-2.47533,-5.66128 -4.90154,-11.43547 -6.84216,-17.31413c-1.12854,-3.41879 -2.20706,-7.14905 -4.3059,-10.08697c-2.34165,-3.27763 -5.20346,-4.15091 -8.58725,-5.87489c-4.69875,-2.394 -9.27656,-5.51824 -13.11868,-9.29932c-2.56535,-2.06087 -5.86912,-4.97244 -6.11738,-8.37711c-0.13004,-1.77479 0.7075,-2.83817 1.88241,-3.17976c-0.1064,-0.38488 -0.16914,-0.7773 -0.16369,-1.17535c0.02092,-1.69198 1.25585,-2.23684 2.61173,-2.20108c-0.16551,-1.37391 0.0582,-2.39776 1.49593,-2.99438c0.77206,-0.31995 1.43682,-0.31148 2.03519,-0.10069c0.24462,-1.76256 1.70417,-2.87863 3.61477,-2.26413c2.78451,0.89587 4.69784,2.94262 6.63573,5.11924c0.75387,0.84787 1.49684,1.7061 2.24525,2.55962c-0.86846,-2.1578 -1.46955,-4.5565 -0.09912,-5.7949c2.92365,-2.64525 6.03645,1.84161 7.21227,4.02481c1.7451,3.23622 3.55385,4.78235 6.02008,7.3222c2.25435,2.3206 1.81875,7.31844 2.81816,10.26859c0.03638,0.1054 0.02364,0.21173 -0.02455,0.31242c2.56535,3.59758 5.14253,7.34385 7.33231,11.17293c1.72418,3.01508 3.16463,6.64466 5.17618,9.66821c-0.39649,-5.51636 -1.36498,-10.93955 -2.00881,-16.44838c-0.592,-5.07689 -1.47865,-11.24821 0.12731,-16.23852c2.599,-8.07503 9.27019,-14.35175 16.87986,-17.33107c0.04729,-0.11387 0.12004,-0.23338 0.24098,-0.36324c5.63541,-6.03957 7.3896,-12.53272 7.62604,-20.53718c-0.13277,0.01506 -0.26463,0.04046 -0.3974,0.04517c-1.78511,0.05646 -3.48564,-1.07937 -3.95488,-2.92192c-0.26645,-1.04737 -0.11458,-1.97994 0.33283,-2.761c-1.18856,0.06681 -2.29436,-0.23244 -2.94275,-1.29769c-1.09489,-1.79832 -0.6202,-4.40123 0.00091,-6.28895c0.00909,-0.02729 0.02001,-0.05552 0.0291,-0.08187c-0.01728,-0.01976 -0.03547,-0.03858 -0.05365,-0.05834c-0.28736,0.66719 -1.61233,1.25346 -2.3562,0.80365c-4.76696,-2.88145 -5.59722,-9.6588 -4.36046,-15.95527c0.40013,-4.78235 3.36015,-9.15817 4.47868,-10.65253c-0.85391,-0.34818 -1.71963,-0.78953 -2.52534,-0.6352c-0.76661,0.14586 -2.10521,-0.18821 -1.31405,-1.21864c1.8233,-2.37423 4.69875,-3.27387 7.53601,-2.96709c0.03819,-0.10822 0.09367,-0.22303 0.18824,-0.35007c14.48092,-19.39194 51.64263,8.35452 36.17867,25.77687c0.84208,7.4276 0.52653,15.07634 -5.02158,17.48257c-2.25798,0.97868 -6.63118,1.01914 -8.53814,2.63867l0.73023,-0.98527l5.51355,-1.00032l5.34259,-4.4144l-0.28464,-13.99415l-1.30768,-7.41066l-1.81875,-4.94044l-3.92214,-3.23528l-3.18282,0.76506l-9.49208,-3.64652l-0.46924,0c-0.0482,-0.0574 -0.10003,-0.11292 -0.1455,-0.16939c0.01,0.05834 0.02819,0.11198 0.0391,0.16939l-0.61838,0l1.59141,3.35291l0,1.1763l-4.8879,-1.29393l-0.73932,4.35229l-1.47774,11.17481c0,0 -1.30768,1.7061 -1.59141,1.76444s-3.29649,-0.41217 -3.29649,-0.41217l-2.21706,1.76444l-0.853,7.76355l3.06915,1.88207l3.63751,-1.47084l2.27344,2.40811c0,0 -2.27344,4.06151 -2.27344,4.35606s-0.34102,8.05809 -0.34102,8.05809l-6.36564,13.29214l4.49051,2.47022l4.49051,4.05869l8.29807,3.9994l9.09377,1.23558l10.34417,0l7.90067,3.52889l5.28621,13.40977l3.29649,11.88058l6.5366,12.11584l-4.77423,12.46873l-1.76237,16.46814l-6.02462,15.46876l-6.42293,10.70429l-0.11367,4.11703c0,0 2.38712,-0.23526 2.55808,0s2.61446,-1.35321 2.61446,-1.35321l6.47931,-6.23437l-1.47774,10.82192l-0.96667,12.99854l2.15977,4.35229l3.46746,-4.82281l2.8418,-12.58636l2.0461,-19.40888l11.48089,-27.0548l0.54017,-12.52143c0.09094,-1.07843 0.13641,-2.1578 0.14004,-3.23622l0.45651,-10.59136l-3.52384,-12.82162l-5.11525,-16.40979l-8.01434,-16.52742l-7.90067,-5.47024l-5.34259,-1.1763l-14.89105,3.58817l-7.55965,-9.46965l1.70508,-2.30083c-0.2719,0.67849 -0.2519,1.53577 0.19461,2.64808c0.95394,2.37423 3.58113,6.57596 6.51842,8.1315c0.14732,-0.25973 0.43559,-0.48087 0.9021,-0.57309c9.00829,-1.79644 16.88077,-5.94735 24.90785,0.80082c6.50114,5.4646 9.53027,16.91042 12.03106,24.7502c3.3747,10.58572 7.6415,21.42081 8.21895,32.66431c0.47924,9.33038 -2.36711,18.76991 -5.55539,27.39545c-1.83967,4.97526 -3.85758,9.89876 -6.23833,14.62559c-1.52412,3.02637 -2.31891,5.33191 -2.63992,8.75164c-0.82662,8.77046 -0.90938,18.17988 -4.13858,26.46665c-0.60019,1.54236 -4.68875,9.86394 -6.83761,4.71836c-0.38558,-0.92316 -0.5911,-1.87925 -0.70113,-2.84852c-2.23161,12.14313 -3.99308,24.38978 -5.28803,36.66748zm-7.52783,-208.78869c0.01,0.06493 0.0191,0.12986 0.0291,0.19385c0.06457,-0.12233 0.12277,-0.24655 0.18278,-0.37077c-0.07366,0.06399 -0.14368,0.12233 -0.21188,0.17691zm-4.06855,-10.56313c0.16823,0.19668 0.3392,0.38959 0.5038,0.58909c0.0582,-0.02353 0.11913,-0.04705 0.18097,-0.06681l-0.68476,-0.52228zm-34.66274,17.62561c-0.65839,-0.82247 -1.39862,-1.82937 -2.12703,-3.00473c0.50289,1.17065 1.2022,2.1945 2.12703,3.00473zm8.38264,13.25544c0.00909,0 0.01637,-0.00282 0.02546,-0.00282c0.12277,-0.54957 0.75024,-0.89398 1.3677,-0.94386c0.22553,-0.39712 0.36011,-0.85352 0.36011,-1.24593c-0.00182,-1.32686 -0.92029,-2.24719 -2.10976,-2.53892c-0.06184,-0.016 -0.0973,-0.0527 -0.14823,-0.07622c-0.09821,0.18444 -0.29555,0.37547 -0.63747,0.55333c-1.56777,0.814 -0.44832,4.16785 1.14218,4.25443zm43.90383,56.95717c-0.65839,1.89148 -1.45318,3.69827 -2.11976,5.2698c-2.60809,6.14779 -5.67542,12.44427 -7.18499,18.99388c-1.53867,6.67571 -0.50652,14.90696 1.18947,21.55914c1.21948,4.78423 3.63933,8.78269 6.45476,12.65506c2.4826,-5.95206 4.13221,-12.28523 4.75332,-18.28622c0.69295,-6.687 1.34679,-15.74824 5.57357,-21.57891c-0.04092,-0.04235 -0.07821,-0.0894 -0.1064,-0.14304c-3.04369,-5.7949 -6.55115,-12.17136 -8.55997,-18.46972zm-26.02001,244.246c-2.65356,0.2042 -5.30531,0.30678 -7.94705,0.14868c0.20461,0.15245 0.33374,0.38394 0.31737,0.71519c-0.44923,8.65659 -4.99521,15.87246 -7.29684,24.07548c-1.34133,4.7767 -3.28922,11.20868 -0.51016,15.78589c1.30768,2.15309 3.30013,5.31215 6.48022,2.85981c1.4741,-1.13677 2.89909,-2.35165 4.02581,-3.87331c8.18076,-11.04683 5.50901,-26.68967 4.93064,-39.71174zm22.13788,-3.04708c-4.37774,1.87454 -9.96496,2.02323 -14.49547,2.35353c1.06488,5.31874 3.29286,17.83264 9.7658,17.85993c8.11892,0.03388 6.06555,-13.58574 4.72967,-20.21346zm-1.94334,-58.64915c1.12217,9.81877 2.34256,19.62437 3.45563,29.44221c0.14186,1.25346 0.28464,2.50786 0.42559,3.76226c2.96002,-3.83472 5.98007,-7.64968 9.4357,-11.00918c3.55385,-3.45643 7.24683,-6.73594 10.67427,-10.30717c-0.26827,-0.15057 -0.51744,-0.3783 -0.74114,-0.70201c-0.67658,-0.97774 -0.3301,-1.73057 0.44287,-2.29989c-8.52814,-1.18853 -17.61919,-2.76853 -23.69292,-8.88621zm-2.82725,-50.65599c2.00063,-18.42173 4.90882,-36.76347 9.00465,-54.81537c-0.12822,-0.14586 -0.16642,-0.35289 -0.04365,-0.63896c0.59928,-1.3965 0.85572,-3.05743 0.82026,-4.58191c0.00091,-0.16374 -0.0291,-0.3256 -0.04092,-0.4884c-1.40226,1.62705 -2.62264,3.43572 -4.15131,4.9395c-1.32951,1.30804 -2.83544,2.39023 -4.7424,2.3253c-1.98699,-0.06775 -2.8609,-2.27354 -3.38652,-3.92883c-0.03819,-0.06775 -0.05093,-0.1468 -0.04547,-0.23149c0,-0.02258 0.00364,-0.04517 0.00637,-0.06681c0.00364,-0.01788 0.00455,-0.03388 0.01,-0.0527c0.03092,-0.15339 0.11822,-0.29549 0.25099,-0.42253c3.17827,-3.68886 5.91459,-8.08633 8.12711,-12.80186c-0.03001,-0.02164 -0.06002,-0.04517 -0.08366,-0.07528c-3.32741,-4.38429 -6.57935,-8.97561 -7.82428,-14.50137c-1.28131,-5.68857 -2.76996,-13.04182 -1.76237,-18.80755c1.20492,-6.89591 4.13767,-13.5114 6.89035,-19.8841c1.59959,-3.70392 4.1313,-8.63871 4.2959,-13.15663c-0.84208,-4.15373 -1.50229,-8.16349 -4.11402,-11.90882c-0.05274,-0.04893 -0.09912,-0.1054 -0.13823,-0.17033c-4.48414,-7.47183 -15.37211,-3.48842 -22.28065,-4.41722c-8.64454,-1.16218 -15.55399,-5.67445 -21.5386,-11.99916c-0.40831,0.37453 -1.11035,0.4724 -1.66325,0.35477c-2.61446,1.06055 -4.98066,2.53045 -7.05859,4.3043l-0.32919,-0.37265l-0.98486,1.2544l-6.51751,7.52829c0,0 -1.2122,11.13528 -2.12158,11.13528s0.68203,8.86174 0.68203,8.86174l2.42531,19.68366l-7.57784,-11.05718l-8.25987,-13.72407l-1.81875,-10.03709l-10.07863,-10.74381l-1.97062,0.86293l2.42531,8.46933l-9.47298,-8.78363c0,0 -3.33469,-2.4307 -3.56203,-2.19544s-0.53017,3.37267 -0.53017,3.37267l-3.63751,-0.15715l-0.30282,2.745l-1.37043,0c0.00637,-0.04893 -0.01455,-0.06211 -0.04365,0l-1.31405,0l0,2.97932l-2.27344,1.41155l1.81875,3.9213l8.33626,7.99881l10.53332,6.50821c0,0 6.44112,3.21552 5.83547,3.45078s3.71299,5.25475 3.71299,5.25475l4.69875,13.09546l4.39502,8.24442c1.30768,3.07437 2.80725,6.01887 4.64601,8.714l3.0837,5.78361l5.91095,2.27354l6.51751,-4.78329l4.62237,-30.89705l1.36407,-24.30979l-7.50236,-14.97848l-1.30587,-1.47272c0.63656,-0.3303 1.58595,-0.56368 1.91606,-0.26443c7.22409,6.52326 7.69333,17.71031 7.2923,26.93152c-0.00909,0.2155 -0.18278,0.39994 -0.43559,0.54768c-0.03365,2.83628 0.26463,5.66128 1.24039,8.35452c1.36316,3.7632 3.67843,6.95991 5.17345,10.6243c3.08097,7.54711 1.63415,15.39724 -1.98972,22.51712c-3.08097,6.05463 -7.52419,11.04777 -11.32993,16.56883c-0.43741,0.6352 -0.873,1.27228 -1.29041,1.92348c-1.01214,1.57906 -1.88332,3.20046 -2.64265,4.85669c-2.89637,6.32188 -4.04855,13.17451 -4.13221,20.33109c0,0.02729 -0.01,0.05364 -0.01455,0.08093c0.00728,0.04141 0.01819,0.07999 0.01819,0.12704c-0.09367,19.66107 -4.30681,39.03419 -4.35774,58.65856c-0.0291,11.49194 3.77392,23.24266 7.12133,34.0674c3.46473,11.20774 7.41688,22.23669 11.36449,33.2694c0.94121,2.63208 2.09793,5.31309 2.72995,8.05339c1.64415,-7.79084 3.07915,-15.5591 3.58477,-23.70471c1.04487,-16.8295 1.34497,-33.71075 2.50624,-50.52989c1.11581,-16.17453 3.68571,-32.25026 5.90913,-48.2874c0.17187,-1.23558 2.86363,-1.59788 2.67175,-0.20609c-2.08156,15.00765 -4.47596,30.04917 -5.67906,45.16975c-0.98486,12.3831 -1.22493,24.83489 -1.84876,37.24057c-0.62565,12.40662 -1.36134,24.68338 -3.45745,36.93568c-0.74933,4.3777 -2.18432,8.54837 -3.11189,12.88091c-0.72568,3.38961 -1.9297,8.11926 0.81389,10.90755c4.79697,4.87645 13.91438,5.15217 20.57739,4.41064c0.3974,-0.2155 0.91847,-0.28325 1.34042,-0.1675c0.08184,-0.01129 0.17096,-0.01976 0.25099,-0.032c2.76451,-0.39429 5.54811,-0.60509 8.32262,-0.88834c0.6793,-0.06964 1.35952,-0.13927 2.03791,-0.22208c2.69085,-0.3303 6.40656,-0.51475 9.21472,-1.81808c-0.00182,-0.00753 -0.00364,-0.01694 -0.00546,-0.02353c-0.03001,-0.13927 -0.01637,-0.2729 0.03274,-0.39712c0.19461,-0.50251 0.94666,-0.8554 1.59596,-0.88552c0.28554,-2.8871 -0.39103,-6.28518 -0.63293,-8.95396c-0.562,-6.19484 -1.25403,-12.37651 -1.96607,-18.55536c-1.23221,-10.68265 -2.59536,-21.354 -3.75937,-32.04699c-0.10913,-0.18444 -0.22098,-0.36512 -0.32556,-0.55521c-0.23462,-0.42441 -0.12368,-0.82435 0.15096,-1.13113c-0.24644,-2.31119 -0.49925,-4.62143 -0.72114,-6.93544c-1.21129,-12.59765 -0.09185,-25.32329 1.26949,-37.86354zm109.28351,-222.1307c0.27372,0.82999 0.58837,1.61952 0.60746,2.5088c0.01637,0.72554 2.65629,0.22773 2.63538,-0.73119c-0.0191,-0.88928 -0.33374,-1.67787 -0.60746,-2.5088c-0.28009,-0.8507 -2.89455,-0.0574 -2.63538,0.73119zm-278.57138,2.19356c-0.02001,0.52133 -0.281,0.98903 -0.30373,1.56965c-0.0582,1.47084 2.62446,1.10384 2.67539,-0.18538c0.02001,-0.52133 0.281,-0.98903 0.30373,-1.56965c0.0582,-1.47084 -2.62446,-1.10384 -2.67539,0.18538zm-9.47026,0.48275c0.01819,-0.81588 0.35102,-1.57812 0.60019,-2.33753c0.18369,-0.56086 -0.85845,-0.5091 -1.10853,-0.47146c-0.48197,0.07152 -1.33224,0.30678 -1.51411,0.86105c-0.29464,0.89869 -0.592,1.71833 -0.61292,2.68007c-0.01455,0.6926 2.61446,0.23902 2.63538,-0.73213zm11.27719,10.7871c-0.65384,-0.21267 -1.38225,0.04611 -1.86331,0.51663c-0.42559,0.41594 -0.89756,0.55709 -1.47046,0.42441c-0.64839,-0.14868 -1.39498,-0.01035 -1.86331,0.51663c-0.3783,0.42629 -0.28373,1.0869 0.31737,1.22617c1.92151,0.44323 3.76118,-0.05364 5.19709,-1.45767c0.44469,-0.43664 0.22371,-1.05114 -0.31737,-1.22617zm-9.91767,-10.54714c-1.06943,2.78547 -4.65328,7.87553 -0.70386,9.85077c1.12672,0.56368 3.03186,-1.12077 1.50957,-1.88207c-2.12521,-1.06337 1.17401,-6.19672 1.72236,-7.62522c0.56927,-1.48401 -2.08066,-1.50942 -2.52807,-0.34348zm93.67587,87.12586c-6.1583,-2.43634 -12.35753,-6.87804 -16.80893,-11.94834c-0.18733,-0.21362 -0.45651,-0.31995 -0.74933,-0.35289c-0.57836,-0.62108 -1.13945,-1.25911 -1.65689,-1.93289c-0.69022,-0.89869 -1.08398,-1.85572 -1.30678,-2.96803c-0.07548,-0.37924 -0.08548,-0.76506 -0.06457,-1.15183c0.26554,0.46299 0.55563,0.90434 0.8339,1.31369c1.73964,2.56244 4.19132,4.58002 6.61936,6.40093c0.7566,0.56744 3.17282,-0.5665 2.07975,-1.38615c-2.67084,-2.00253 -5.24347,-4.30148 -6.97674,-7.2441c-0.00455,-0.00847 -0.00909,-0.01882 -0.01455,-0.02635c-0.02273,-0.03952 -0.04456,-0.08563 -0.0682,-0.12704c-0.36375,-0.64743 -0.69385,-1.4492 -0.72114,-2.20203c0.17551,0.09316 0.34374,0.1995 0.50743,0.3049c1.36134,3.00849 5.02795,5.44013 7.22591,7.27986c0.54926,0.45923 2.8509,-0.61261 2.48533,-0.91939c-2.33255,-1.95171 -4.98612,-3.93636 -6.70575,-6.52891c-0.43468,-0.65402 -0.71295,-1.38803 -0.85572,-2.16532c-0.05547,-0.30113 -0.09367,-0.60979 -0.11185,-0.92033c0.20552,0.24091 0.39558,0.49404 0.56563,0.72177c0.1355,0.17974 0.41649,0.21832 0.74296,0.1788c1.0567,2.95674 3.92033,5.15312 6.36564,6.81969c0.7466,0.5091 3.17555,-0.60791 2.08975,-1.34945c-1.84604,-1.25911 -3.48473,-2.67725 -4.87608,-4.45675c-0.64384,-0.82341 -0.95303,-1.63929 -1.19492,-2.6302c-0.0773,-0.45358 -0.13277,-0.91092 -0.16823,-1.37015c0.05911,-0.17221 0.09276,-0.31054 0.11185,-0.42911c2.37984,0.81776 4.45686,3.75474 5.98734,5.49377c1.01941,1.15747 3.59841,4.99126 5.91459,5.6274c1.14582,4.15656 1.00668,8.83633 5.33259,10.9659c0.72295,0.35571 3.15099,-0.75095 2.11157,-1.26287c-4.11857,-2.02793 -3.78665,-6.98155 -4.9361,-10.90379c-0.02092,-0.07152 -0.04183,-0.1421 -0.06275,-0.21362c-0.02092,-0.06587 -0.03819,-0.13551 -0.06002,-0.20138c-0.82753,-2.52292 -2.09339,-4.82187 -2.62355,-7.45771c-0.07275,-0.3623 -0.09003,-0.58438 -0.08912,-0.72177c0.73296,0.43382 1.21948,1.22147 1.69872,1.90842c1.14309,1.63929 1.94971,3.54583 2.9673,5.27169c1.24494,2.11451 3.57749,2.87957 4.7906,5.08066c1.30405,2.36765 1.17855,5.53235 1.87332,8.20207c-0.21007,0.1788 -0.30464,0.37547 -0.17551,0.55709c3.09461,4.31842 6.19195,8.87586 8.7473,13.55845c2.12067,3.88742 3.89214,8.6406 7.31776,11.53522c0.60655,0.51192 2.98094,-0.54298 2.47169,-0.97397c-0.10003,-0.08469 -0.1937,-0.17691 -0.291,-0.26443c0.04183,-0.07716 0.07184,-0.15621 0.07002,-0.24091c-0.15096,-9.61457 -2.5799,-18.97412 -2.80543,-28.5821c-0.17369,-7.42384 2.91728,-14.04026 8.00343,-18.68334c0.11549,-0.1054 0.24462,-0.19856 0.36193,-0.30207c0.0191,-0.01412 0.0291,-0.02729 0.05002,-0.04141c0.08093,-0.07058 0.17005,-0.13269 0.2519,-0.20232l-0.32919,-0.37265l-0.98486,1.2544l-6.51751,7.52829c0,0 -1.2122,11.13528 -2.12158,11.13528s0.68203,8.86174 0.68203,8.86174l2.42531,19.68366l-7.57784,-11.05718l-8.25987,-13.72407l-1.81875,-10.03709l-10.07863,-10.74381l-1.97062,0.86293l2.42531,8.46933l-9.47298,-8.78363c0,0 -3.33469,-2.4307 -3.56203,-2.19544s-0.53017,3.37267 -0.53017,3.37267l-3.63751,-0.15715l-0.30282,2.745l-1.37043,0c-0.00546,0.03576 -0.02273,0.08187 -0.08093,0.1308c0.01,-0.06681 0.02364,-0.10163 0.03728,-0.1308l-1.31405,0l0,2.97932l-2.27344,1.41155l1.81875,3.9213l8.33626,7.99881l10.53332,6.50821c0,0 6.44112,3.21552 5.83547,3.45078s3.71299,5.25475 3.71299,5.25475l4.69875,13.09546l4.39502,8.24442c-2.94365,-6.92509 -4.93974,-14.48161 -7.75244,-21.20061c-1.90787,-4.55085 -4.70694,-7.78802 -9.19926,-9.56564zm33.95433,-28.69408c-0.16642,0.12422 -0.27918,0.24937 -0.28009,0.35571c0,0.04611 0.01182,0.09034 0.05456,0.12892c6.12011,5.52671 7.27684,14.54654 7.23319,22.73638c-0.19279,0.17503 -0.33283,0.39053 -0.37103,0.64743c-1.57413,10.41633 -0.3201,21.12721 -1.45318,31.6c-0.47651,4.40123 -1.67234,9.07253 -3.171,13.19898c-0.853,2.34789 -2.19251,5.02608 -4.62237,5.91724c-3.5784,1.31275 -7.16226,-2.83346 -9.01011,-5.34509c-0.25554,-0.34724 -0.49379,-0.70672 -0.7366,-1.06337l3.0837,5.78361l5.91095,2.27354l6.51751,-4.78329l4.62237,-30.89705l1.36407,-24.30979l-7.50236,-14.97848l-1.30587,-1.47272c-0.10367,0.05364 -0.20097,0.10822 -0.28464,0.16562c-0.02001,0.01506 -0.03092,0.02917 -0.04911,0.04235zm37.79463,-40.39493c-0.38376,-0.42441 -0.71022,-0.89304 -0.91756,-1.43508c-0.48288,-1.26193 -3.1037,-0.49216 -2.63538,0.73119c0.30009,0.782 0.71841,1.40967 1.24494,2.01946c-0.17278,0.07716 -0.34465,0.15715 -0.51835,0.22961c-0.50561,0.21173 -0.99486,0.90434 -0.61292,1.44355c0.41377,0.58438 1.2413,0.4564 1.79602,0.22491c0.86755,-0.36324 2.60173,-1.00973 2.28254,-2.30083c-0.09185,-0.36889 -0.39831,-0.64649 -0.63929,-0.91281zm-7.77063,6.6983c0.48288,-0.11104 1.25494,-0.60791 1.09307,-1.23276c-0.17005,-0.65402 -1.05852,-0.61073 -1.5423,-0.50063c-0.70022,0.16092 -1.39226,-0.16186 -1.89787,-0.65684c-0.48015,-0.47052 -1.20402,-0.43099 -1.77783,-0.15527c-0.36193,0.17409 -1.12672,0.84787 -0.64475,1.32027c1.33678,1.30804 2.99822,1.62988 4.76968,1.22523zm7.98979,6.90815l5.34259,-4.4144l-0.28464,-13.99415l-1.30768,-7.41066l-1.81875,-4.94044l-3.92214,-3.23528l-3.18282,0.76506l-9.49208,-3.64652l-0.46924,0c1.05579,1.25534 2.70176,2.54927 5.12525,2.83064c2.04155,0.85634 4.29408,1.24029 6.69938,1.17912c0.19824,-0.00565 1.13672,-0.21456 1.60778,-0.53357c1.68599,1.7061 3.24557,3.54112 4.59599,5.60199c0.02273,0.03576 0.05547,0.06399 0.0873,0.09222c0.96121,7.04836 2.50261,14.21812 1.10671,21.26366c-0.55381,2.79582 -2.14977,5.41002 -5.21073,6.0264c-1.40317,0.28325 -2.88454,0.2682 -4.26316,0.69731c-1.79511,0.55898 -3.20374,1.20076 -4.32955,2.83158c-2.21706,3.2127 4.40593,9.74349 6.46931,11.1908c2.82271,1.979 6.2747,1.55553 8.94009,-0.26725c2.59627,-0.72177 5.18254,-1.48401 7.84702,-1.86419c5.46445,-0.78106 9.60393,2.49563 12.60397,6.82157c4.89154,7.05024 7.37141,15.95339 9.92858,24.11782c2.79906,8.93514 5.85366,17.71972 6.91491,27.10467c0.14914,1.31557 0.20734,2.63584 0.20461,3.95612l0.45651,-10.59136l-3.52384,-12.82162l-5.11525,-16.40979l-8.01434,-16.52742l-7.90067,-5.47024l-5.34259,-1.1763l-14.89105,3.58817l-7.55965,-9.46965l1.70508,-2.30083c0.15823,-0.39241 0.41377,-0.7246 0.74751,-1.00691l0.73023,-0.98527l5.51537,-1.00126zm-11.65458,-18.34268c0.51835,-0.03576 1.47137,-0.44699 1.44409,-1.13207c-0.01273,-0.32466 -0.04274,-0.62767 -0.13368,-0.93821c-0.05911,-0.20044 -0.16096,-0.41688 -0.17005,-0.62955c-0.02637,-0.68978 -0.60746,-0.98997 -1.2313,-0.94668c-0.51835,0.03576 -1.47137,0.44699 -1.44409,1.13207c0.01273,0.32466 0.04274,0.62767 0.13368,0.93821c0.05911,0.20044 0.16096,0.41688 0.17005,0.62955c0.02728,0.69072 0.60837,0.98997 1.2313,0.94668zm10.00315,-3.81026c0.27372,0.83094 0.58837,1.62046 0.60746,2.51069c0.01637,0.72554 2.65629,0.22773 2.63538,-0.73119c-0.0191,-0.88928 -0.33374,-1.67881 -0.60746,-2.51069c-0.28009,-0.8507 -2.89455,-0.0574 -2.63538,0.73119zm-9.1447,-3.66345c0.16914,-0.07999 0.9403,-0.57403 0.33465,-0.66531c-2.43349,-0.36324 -5.24984,0.40465 -6.62936,2.64337c-0.24644,0.39994 0.96303,0.24091 1.04397,0.22491c0.47106,-0.09034 1.26767,-0.26161 1.55049,-0.72177c0.26827,-0.43664 0.57291,-0.82811 0.99304,-1.11701c0.03547,-0.02447 0.05638,-0.04141 0.07457,-0.05834c0.01819,0 0.03092,0.00094 0.0582,-0.00188c0.24189,-0.02635 0.49652,0.01976 0.73478,0.05552c0.61019,0.09128 1.2895,-0.09975 1.83967,-0.35948zm40.37999,142.68088c-1.96607,5.48436 -1.42499,12.4405 -2.08429,18.18929c-0.47015,4.1048 -1.20129,8.17572 -2.43077,12.11302c-0.44741,1.43696 -1.05215,2.80805 -1.71145,4.15185c-0.79298,1.61858 -0.38012,1.58941 -0.81116,-0.10728c-0.84754,-3.34068 0.13459,-7.23657 -0.85936,-10.44645c-0.0191,-0.06211 -0.0482,-0.11575 -0.07639,-0.16939c0.582,-2.80993 1.18128,-5.61705 1.81694,-8.41381c0.03001,-0.13363 -0.00546,-0.23526 -0.07912,-0.31337c0.78206,-2.01099 1.13854,-4.42946 0.6502,-6.53832c-0.43014,-1.85855 -2.67448,-0.79047 -3.55657,-0.00282c-1.65416,1.47931 -2.90364,3.42161 -4.34773,5.10983c-0.69385,0.80929 -1.46683,1.7061 -2.42713,2.17474c-0.65111,0.31807 -1.45318,-1.86796 -1.73782,-2.7196c5.94187,-7.0606 9.92131,-16.2677 12.47484,-25.1332c2.77087,-9.62304 0.65293,-26.87976 10.0659,-32.94851c1.51684,-0.97774 -0.71295,-1.71645 -1.70508,-1.07749c-0.6593,0.42441 -1.25039,0.92033 -1.81148,1.44261c-3.16463,-6.03769 -6.46476,-12.49602 -8.46539,-18.98917c-0.32283,-1.04926 -0.58109,-2.08345 -0.81026,-3.10354c0.11367,-1.59506 -0.04092,-3.15247 -0.63384,-4.58567c-0.05456,-0.1308 -0.19733,-0.19856 -0.39012,-0.22208c-0.63747,-2.76759 -1.4932,-5.4439 -3.36379,-8.05809c-0.01637,-0.03482 -0.02546,-0.07058 -0.04729,-0.10634c-3.37834,-5.62834 -10.8325,-5.4119 -16.48246,-5.28392c-4.84152,0.10916 -9.09014,0.19668 -13.78616,-1.43414c-5.52901,-1.9216 -10.17593,-6.01322 -14.129,-10.30999c-0.04729,-0.05176 -0.10185,-0.09599 -0.16005,-0.13457c4.81879,-6.03298 6.362,-12.63247 6.48295,-20.65104c0.81298,-0.64932 1.43954,-1.53201 1.68417,-2.57279c0.51107,-2.17191 -1.25949,-3.92036 -3.13371,-4.38052c-0.63111,-0.15527 -1.40135,0.032 -1.86331,0.51663c-0.06093,0.06305 -0.08639,0.13363 -0.12368,0.20232c-0.02183,0.00659 -0.04274,0.01317 -0.06457,0.01976c-0.3592,-0.18821 -0.89846,-0.22397 -1.40317,0.03858c-0.29009,0.15057 -0.54926,0.32936 -0.79116,0.51945c-2.24252,-0.26631 -2.01791,-4.66378 -1.47137,-6.58631c0.37466,-1.31933 0.9694,-2.77323 1.93243,-3.7792c0.1164,0.08375 0.22553,0.18162 0.32192,0.2729c0.72386,0.68602 1.07397,1.83408 1.36134,2.76853c0.17642,0.57403 2.7927,-0.21644 2.63538,-0.73119c-0.24189,-0.78577 -0.52653,-1.47555 -0.88119,-2.03358c0.35829,-0.12233 0.67021,-0.32466 0.81662,-0.60226c2.71904,-5.15876 2.20251,-10.68265 2.65902,-16.29405c1.18856,0.36512 2.33528,0.80929 3.50292,1.36262c0.71659,0.33971 2.67357,-0.46205 1.97881,-1.47649c-0.87482,-1.27416 -1.34588,-2.27072 -1.56504,-3.41784l-0.61838,0l1.59141,3.35291l0,1.1763l-4.8879,-1.29393l-0.73932,4.35229l-1.47774,11.17481c0,0 -1.30768,1.7061 -1.59141,1.76444s-3.29649,-0.41217 -3.29649,-0.41217l-2.21706,1.76444l-0.853,7.76355l3.06915,1.88207l3.63751,-1.47084l2.27344,2.40811c0,0 -2.27344,4.06151 -2.27344,4.35606s-0.34102,8.05809 -0.34102,8.05809l-6.36564,13.29214l4.49051,2.47022l4.49051,4.05869l8.29807,3.9994l9.09377,1.23558l10.34417,0l7.90067,3.52889l5.28621,13.40977l3.29649,11.88058l6.5366,12.11584l-4.77423,12.46873l-1.76237,16.46814l-6.02462,15.46876l-6.42293,10.70429l-0.11367,4.11703c0,0 2.38712,-0.23526 2.55808,0s2.61446,-1.35321 2.61446,-1.35321l6.47931,-6.23437l-1.47774,10.82192l-0.96667,12.99854l2.15977,4.35229l3.46746,-4.82281l2.8418,-12.58636l2.0461,-19.40888l11.48089,-27.0548l0.54017,-12.52143c-0.56381,6.74911 -2.70904,13.45494 -4.8779,19.7006c-2.37257,6.81969 -6.18286,13.02959 -8.59453,19.75518zm-33.75336,-142.64418c1.21311,0 2.42531,0 3.63751,0c0.60474,0 1.38498,-0.19479 1.73509,-0.76318c0.33374,-0.5411 -0.281,-0.86952 -0.73205,-0.86952c-1.21311,0 -2.42531,0 -3.63751,0c-0.60474,0 -1.38498,0.19479 -1.73509,0.76318c-0.33283,0.5411 0.281,0.86952 0.73205,0.86952zm13.36512,156.10194c-0.0191,-0.05834 -0.02455,-0.11575 -0.02455,-0.17127c-0.00546,0.08469 0.00728,0.16374 0.04547,0.23149c-0.00728,-0.01882 -0.01455,-0.04046 -0.02092,-0.06023z" id="svg_6"/>
  </g>
  <text xml:space="preserve" text-anchor="start" font-family="Noto Sans JP" font-size="24" id="svg_11" y="481" x="220" stroke-width="0" stroke="#000" fill="#000000">DESIGN</text>
 </g>
</svg>